<svg width="128" height="128" viewBox="0 0 128 128" fill="none" xmlns="http://www.w3.org/2000/svg">
<path d="M114.896 37.888C114.974 39.017 114.974 40.145 114.974 41.284C114.974 75.984 88.557 116.004 40.254 116.004V115.984C25.9841 116.004 12.0099 111.917 0 104.21C2.075 104.46 4.16 104.585 6.25 104.59C18.0771 104.599 29.564 100.633 38.865 93.327C33.385 93.2235 28.0743 91.41 23.6754 88.1402C19.2766 84.8704 16.0095 80.3077 14.331 75.09C18.268 75.85 22.324 75.693 26.188 74.637C13.936 72.162 5.122 61.398 5.122 48.897V48.564C8.77431 50.5987 12.862 51.726 17.041 51.851C5.5 44.139 1.945 28.788 8.913 16.787C15.5059 24.8996 23.7316 31.5347 33.0558 36.2613C42.3801 40.9878 52.5943 43.7001 63.035 44.222C61.9943 39.7408 62.1483 35.0648 63.4817 30.6618C64.8151 26.2588 67.281 22.283 70.633 19.132C81.21 9.18899 97.845 9.69899 107.787 20.271C113.668 19.1097 119.308 16.9534 124.464 13.895C122.503 19.9757 118.401 25.1373 112.92 28.42C118.126 27.8062 123.209 26.4123 128 24.285C124.476 29.5626 120.038 34.1691 114.896 37.888Z" fill="#1D9BF0"/>
</svg>
