<svg width="80" height="80" viewBox="0 0 80 80" fill="none" xmlns="http://www.w3.org/2000/svg">
<circle cx="40.2074" cy="40.2711" r="39.3783" fill="white"/>
<path fill-rule="evenodd" clip-rule="evenodd" d="M24.9785 32.7278C25.7901 21.5306 34.8562 12.7065 45.9211 12.7065C57.52 12.7065 66.9229 22.4032 66.9229 34.3646C66.9229 45.7753 58.3663 55.1247 47.5084 55.9618C45.1386 59.118 41.6832 61.3709 37.7134 62.1211C35.32 66.1036 31.0405 68.7627 26.1548 68.7627C18.6496 68.7627 12.5654 62.4885 12.5654 54.7487C12.5654 49.7102 15.1439 45.2971 19.0059 42.8288C19.7332 38.7349 21.9179 35.1716 24.9785 32.7278ZM45.9211 17.8026C37.1311 17.8026 29.9899 25.0855 29.8627 34.1186C29.8616 34.2004 29.861 34.2824 29.861 34.3646C29.861 43.5117 37.0512 50.9266 45.9211 50.9266C46.0007 50.9266 46.0803 50.9261 46.1596 50.9249C54.919 50.7936 61.9813 43.4294 61.9813 34.3646C61.9813 25.2176 54.7911 17.8026 45.9211 17.8026ZM25.5179 39.5195C24.5488 41.0325 23.9191 42.7947 23.7381 44.6906C23.7024 45.065 23.684 45.4451 23.684 45.8306C23.684 52.1632 28.662 57.2967 34.8026 57.2967C35.1764 57.2967 35.545 57.2778 35.908 57.2409C37.7465 57.0543 39.4553 56.4049 40.9225 55.4055C33.3389 53.496 27.3695 47.3401 25.5179 39.5195ZM19.1437 49.5263C18.1132 50.9952 17.507 52.7997 17.507 54.7487C17.507 59.6739 21.3788 63.6667 26.1548 63.6667C28.0448 63.6667 29.7946 63.0414 31.219 61.9789C25.2266 60.5703 20.5094 55.7059 19.1437 49.5263Z" fill="#935ED0"/>
</svg>
