<svg width="80" height="80" viewBox="0 0 80 80" fill="none" xmlns="http://www.w3.org/2000/svg">
<circle cx="39.7912" cy="39.8524" r="39.3783" transform="rotate(180 39.7912 39.8524)" fill="white"/>
<g clip-path="url(#clip0_7_1185)">
<path d="M48.0146 50.7391H20.2182V24.68H34.1164V21.2054H20.2182V17.7309C20.2182 17.2701 20.4012 16.8282 20.727 16.5024C21.0528 16.1766 21.4947 15.9936 21.9555 15.9936H35.8537V12.519H21.9555C20.5732 12.519 19.2476 13.0681 18.2702 14.0456C17.2928 15.023 16.7437 16.3486 16.7437 17.7309V62.9001C16.7437 64.2823 17.2928 65.608 18.2702 66.5854C19.2476 67.5628 20.5732 68.1119 21.9555 68.1119H46.2774C47.6596 68.1119 48.9853 67.5628 49.9627 66.5854C50.9401 65.608 51.4892 64.2823 51.4892 62.9001V47.2646H48.0146V50.7391ZM48.0146 62.9001C48.0146 63.3608 47.8316 63.8027 47.5058 64.1285C47.18 64.4543 46.7381 64.6374 46.2774 64.6374H21.9555C21.4947 64.6374 21.0528 64.4543 20.727 64.1285C20.4012 63.8027 20.2182 63.3608 20.2182 62.9001V54.2137H48.0146V62.9001Z" fill="#D59681"/>
<path d="M35.8535 57.6882H32.3789V61.1628H35.8535V57.6882Z" fill="#D59681"/>
<path d="M49.7518 12.519C47.0002 12.531 44.334 13.4757 42.1888 15.1988C40.0436 16.922 38.5462 19.3217 37.9412 22.0059C37.3362 24.6902 37.6593 27.5002 38.8579 29.9771C40.0565 32.4539 42.0596 34.451 44.5399 35.6422V38.5782C44.5399 39.039 44.723 39.4808 45.0488 39.8066C45.3746 40.1324 45.8165 40.3155 46.2772 40.3155H48.0145V43.79H51.489V40.3155H53.2263C53.6871 40.3155 54.129 40.1324 54.4548 39.8066C54.7806 39.4808 54.9636 39.039 54.9636 38.5782V35.6422C57.444 34.451 59.4471 32.4539 60.6456 29.9771C61.8442 27.5002 62.1674 24.6902 61.5624 22.0059C60.9573 19.3217 59.4599 16.922 57.3147 15.1988C55.1695 13.4757 52.5033 12.531 49.7518 12.519ZM49.7518 33.3664C48.0338 33.3664 46.3543 32.8569 44.9259 31.9024C43.4974 30.948 42.384 29.5913 41.7266 28.0041C41.0691 26.4169 40.8971 24.6703 41.2323 22.9854C41.5675 21.3004 42.3948 19.7526 43.6096 18.5378C44.8244 17.323 46.3721 16.4957 48.0571 16.1605C49.7421 15.8253 51.4887 15.9974 53.0759 16.6548C54.6631 17.3123 56.0198 18.4256 56.9742 19.8541C57.9287 21.2826 58.4382 22.962 58.4382 24.68C58.4382 25.8207 58.2135 26.9502 57.7769 28.0041C57.3404 29.058 56.7006 30.0156 55.894 30.8222C55.0874 31.6288 54.1298 32.2686 53.0759 32.7052C52.022 33.1417 50.8925 33.3664 49.7518 33.3664Z" fill="#D59681"/>
</g>
<defs>
<clipPath id="clip0_7_1185">
<rect width="55.5929" height="55.5929" fill="white" transform="translate(11.5312 12.519)"/>
</clipPath>
</defs>
</svg>
