<svg width="80" height="79" viewBox="0 0 80 79" fill="none" xmlns="http://www.w3.org/2000/svg">
<path d="M0.411899 39.6159C0.411897 17.8678 18.0422 0.237591 39.7902 0.237589C61.5382 0.237587 79.1685 17.8678 79.1685 39.6159C79.1685 61.3639 61.5382 78.9941 39.7902 78.9941C18.0422 78.9941 0.4119 61.3639 0.411899 39.6159Z" fill="white"/>
<g clip-path="url(#clip0_7_1143)">
<path d="M48.2216 14.1292C48.2216 12.949 47.4897 10.4299 45.2659 10.4299C43.9706 10.4299 42.7763 11.4806 42.4038 13.1146L30.544 65.0013C30.4662 65.3412 30.429 65.6837 30.429 66.0206C30.3485 67.2157 31.1732 69.729 33.3969 69.729C34.6866 69.729 35.8735 68.6684 36.246 67.0397L48.1058 15.153C48.1846 14.809 48.2216 14.4662 48.2216 14.1292ZM25.9845 27.0036C25.9845 24.8864 24.5993 23.2974 23.0195 23.2974C22.2609 23.2974 21.5018 23.6593 20.9237 24.3833L10.5463 37.3549C9.96679 38.18 9.67725 39.1297 9.67725 39.9752C9.67725 40.8207 9.96679 41.9789 10.5459 42.697L20.9232 55.6686C21.5 56.3983 22.2598 56.6531 23.0195 56.6531C24.5993 56.6531 25.9845 55.0629 25.9845 52.9469C25.9845 51.9986 25.6949 51.0498 25.1158 50.3259L16.8348 39.9752L25.1163 29.6234C25.6973 28.9956 25.9845 28.0575 25.9845 27.0036ZM68.9763 39.9752C68.9763 39.0269 68.6868 38.0781 68.1077 37.3542L57.7303 24.3826C57.1536 23.7606 56.3938 23.2974 55.634 23.2974C54.0542 23.2974 52.6691 24.8876 52.6691 27.0036C52.6691 27.9519 52.9586 28.9007 53.5377 29.6245L61.8192 39.9764L53.5377 50.3282C52.9563 51.1517 52.6691 52.1014 52.6691 52.9469C52.6691 55.0641 54.0542 56.6531 55.634 56.6531C56.3927 56.6531 57.1517 56.2911 57.7299 55.5672L68.1072 42.5955C68.6891 41.9789 68.9763 41.0292 68.9763 39.9752Z" fill="#D59681"/>
</g>
<defs>
<clipPath id="clip0_7_1143">
<rect width="59.2991" height="59.2991" fill="white" transform="translate(9.67725 10.4299)"/>
</clipPath>
</defs>
</svg>
