<svg width="80" height="79" viewBox="0 0 80 79" fill="none" xmlns="http://www.w3.org/2000/svg">
<path d="M79.5876 39.6156C79.5876 61.3636 61.9574 78.9939 40.2093 78.9939C18.4613 78.9939 0.831055 61.3636 0.831055 39.6156C0.831055 17.8676 18.4613 0.237305 40.2093 0.237305C61.9574 0.237305 79.5876 17.8676 79.5876 39.6156Z" fill="white"/>
<g clip-path="url(#clip0_7_1155)">
<path d="M65.6241 18.4088L65.7519 18.5526C67.1577 20.853 67.7967 23.5847 67.4133 26.1726C67.1577 28.7606 65.8797 31.2047 63.8349 32.93L26.134 64.848L16.2934 64.9918C15.6544 64.9918 15.0154 64.848 14.3764 64.4167C13.7374 64.1291 13.2262 63.6978 12.8428 62.9789C12.4594 62.4038 12.076 61.685 11.9482 60.9661C11.9482 60.2472 11.9482 59.5283 12.2038 58.6657L15.0154 48.1701L52.7164 16.2522C54.7611 14.5269 57.1893 13.9518 59.4897 14.3831C61.9179 14.6707 64.0905 16.1084 65.6241 18.4088ZM53.3553 22.1469L59.1063 30.6296L61.1511 28.9043C62.1735 28.0417 62.8125 26.7477 62.9403 25.4538C63.0681 24.1598 62.8125 22.722 62.0457 21.5718L61.9179 21.4281C61.1511 20.2779 60.1287 19.559 58.8507 19.4152C57.7005 19.1277 56.5503 19.559 55.5279 20.2779L53.3553 22.1469ZM55.5279 33.6489L49.777 25.1662L21.7888 48.889L27.412 57.3717L55.5279 33.6489ZM23.4502 59.8159L18.5938 52.4834L16.549 59.9597L23.4502 59.8159Z" fill="#D59681"/>
</g>
<defs>
<clipPath id="clip0_7_1155">
<rect width="55.5929" height="50.9601" fill="white" transform="translate(11.9492 14.1355)"/>
</clipPath>
</defs>
</svg>
