<svg width="80" height="80" viewBox="0 0 80 80" fill="none" xmlns="http://www.w3.org/2000/svg">
<circle cx="40.2084" cy="39.9259" r="39.3783" fill="white"/>
<g clip-path="url(#clip0_7_1197)">
<path d="M45.9209 46.3103V59.6538V60.9275V63.9394V64.8413H51.8236V69.5901L58.564 64.8413H69.3934V64.4595V63.3205V60.9263V59.382V46.8749V46.3103H45.9209ZM65.6873 59.3833V60.9275H59.9204L53.6644 65.3354V60.9275H49.6271V59.6538V49.8089H65.6873V59.3833Z" fill="#D59681"/>
<path d="M49.7611 44.7105H51.2473H55.7355C57.1525 41.6565 57.9654 38.2641 57.9654 34.6753C57.9654 22.1323 48.3157 11.8501 36.0371 10.8297C36.0321 10.8272 36.0284 10.8235 36.0235 10.8198V10.8285C35.3663 10.7741 34.7016 10.7395 34.0296 10.7395C33.3575 10.7395 32.6929 10.7741 32.0344 10.8285V10.8198C32.0295 10.8223 32.0258 10.8272 32.0208 10.8297C19.7434 11.8501 10.0938 22.1323 10.0938 34.6753C10.0938 47.2171 19.7422 57.5005 32.0208 58.521C32.0258 58.5247 32.0295 58.5284 32.0344 58.5321V58.5222C32.6929 58.5766 33.3563 58.6111 34.0296 58.6111C38.3868 56.8556 41.0404 53.908 41.9855 52.7121C43.7089 50.3649 45.1037 47.668 46.0796 44.7105H49.7611ZM26.3244 16.2741C24.0908 19.2131 22.3934 22.7389 21.3939 26.6341H15.784C17.8409 21.9742 21.62 18.247 26.3244 16.2741ZM15.0217 40.7214C14.4152 38.8139 14.0828 36.7841 14.0828 34.6753C14.0828 33.2867 14.2262 31.9327 14.4967 30.6232H20.6342C20.4698 31.9463 20.3784 33.2979 20.3784 34.6753C20.3784 36.7545 20.5823 38.7756 20.9479 40.7214H15.0217ZM16.8118 44.7105H21.9795C23.0037 47.8175 24.4799 50.649 26.3256 53.0753C22.3143 51.3952 18.9849 48.4327 16.8118 44.7105ZM32.0344 53.1198C29.5389 50.9443 27.5079 48.0559 26.1341 44.7105H32.0344V53.1198ZM32.0344 40.7214H24.8716C24.4293 38.7954 24.1859 36.7706 24.1859 34.6753C24.1859 33.2917 24.2922 31.9389 24.4898 30.6232H32.0356L32.0344 40.7214ZM32.0344 26.6341H25.4053C26.7271 22.4362 29.0546 18.8289 32.0344 16.2296V26.6341ZM53.9763 34.6753C53.9763 36.7841 53.644 38.8139 53.0374 40.7214H47.1112C47.4781 38.7756 47.6807 36.7545 47.6807 34.6753C47.6807 33.2979 47.5893 31.9463 47.425 30.6232H53.5637C53.833 31.9327 53.9763 33.2867 53.9763 34.6753ZM52.2764 26.6341H46.6652C45.6658 22.7401 43.9683 19.2131 41.7347 16.2741C46.4404 18.247 50.2182 21.9742 52.2764 26.6341ZM36.0247 16.2296C39.0045 18.8289 41.3308 22.4362 42.6551 26.6341H36.0247V16.2296ZM36.0247 53.1198V44.7105H41.925C40.5512 48.0559 38.519 50.9443 36.0247 53.1198ZM43.1876 40.7214H36.0247V30.6232H43.5705C43.7682 31.9389 43.8732 33.2917 43.8732 34.6753C43.8732 36.7706 43.6298 38.7954 43.1876 40.7214Z" fill="#D59681"/>
</g>
<defs>
<clipPath id="clip0_7_1197">
<rect width="59.2991" height="59.2991" fill="white" transform="translate(10.0957 10.7397)"/>
</clipPath>
</defs>
</svg>
