<svg width="80" height="79" viewBox="0 0 80 79" fill="none" xmlns="http://www.w3.org/2000/svg">
<circle cx="40.2084" cy="39.5804" r="39.3783" fill="white"/>
<path d="M32.7924 37.7038C33.9291 37.7038 34.8505 38.6185 34.8505 39.7469V42.4315H37.5787C38.3625 42.3473 39.126 42.7149 39.5445 43.3783C39.963 44.0416 39.963 44.884 39.5445 45.5474C39.126 46.2107 38.3625 46.5784 37.5787 46.4941H34.8505V49.2025C34.8376 50.3255 33.9237 51.2328 32.7924 51.2456C31.6412 51.2326 30.7343 50.3217 30.7343 49.2025V46.4941H28.0062C27.2223 46.5784 26.4589 46.2107 26.0404 45.5474C25.6219 44.884 25.6219 44.0416 26.0404 43.3783C26.4589 42.7149 27.2223 42.3473 28.0062 42.4315H30.7343V39.7469L30.7531 39.4697C30.8894 38.4724 31.7505 37.7038 32.7924 37.7038ZM51.9374 47.7295C52.5208 47.1494 53.3971 46.9717 54.163 47.2781C54.409 47.3923 54.6352 47.5447 54.833 47.7295C55.6197 48.5208 55.6141 49.7946 54.8204 50.579C54.0267 51.3635 52.7437 51.3635 51.95 50.579C51.1564 49.7946 51.1507 48.5208 51.9374 47.7295ZM48.0127 38.2264C48.5032 38.0258 49.0537 38.0258 49.5443 38.2264C49.8003 38.3356 50.0352 38.4884 50.2383 38.6778C50.6178 39.057 50.8326 39.5687 50.8365 40.1033C50.8397 40.3713 50.791 40.6375 50.6929 40.8873C50.5985 41.1426 50.4423 41.371 50.2383 41.5525C49.4342 42.3128 48.1706 42.3128 47.3665 41.5525C46.9668 41.1798 46.74 40.6596 46.74 40.1152C46.74 39.5707 46.9668 39.0505 47.3665 38.6778C47.5465 38.4828 47.7669 38.3288 48.0127 38.2264ZM67.6836 37.8094C67.3214 29.4886 60.2735 23.1189 51.7798 23.1784C50.7393 23.1946 49.907 24.0459 49.9205 25.089C49.934 26.1268 50.7826 26.9807 51.8284 26.9483C58.4413 26.8159 63.6353 31.5992 63.9137 37.9688C63.9272 38.2174 63.9299 38.4688 63.9218 38.766V50.4919C63.992 53.5754 62.8543 56.4967 60.7248 58.7208C58.5953 60.9503 55.7253 62.2123 52.6391 62.2799C52.3878 62.2853 52.1338 62.2799 51.7716 62.2691C44.2724 62.3961 36.8056 62.3961 29.4604 62.2718C23.0475 62.5474 17.7075 57.6047 17.4291 51.254C17.4183 50.9999 17.4156 50.7459 17.421 50.4514V38.7228C17.2832 32.3613 22.3449 27.0753 28.7118 26.9402C28.9604 26.9321 29.2144 26.9402 29.5441 26.9483H42.2104C43.2509 26.9483 44.0967 26.1051 44.0967 25.062V22.5352C44.0427 18.6221 40.8349 15.463 36.9461 15.463H36.8921H34.2166H34.2004C33.8032 15.463 33.4275 15.3089 33.1411 15.0279C32.8492 14.7468 32.6871 14.3658 32.6844 13.9604C32.6736 12.9254 31.8304 12.093 30.8008 12.093H30.7792C29.7387 12.1038 28.9037 12.9578 28.9145 13.9982C28.9307 15.4089 29.4928 16.7331 30.5008 17.7195C31.5115 18.714 32.8411 19.1761 34.2383 19.2355H36.9056H36.9326C38.7811 19.2355 40.3025 20.7327 40.3241 22.5568V23.1784L29.6252 23.1811C29.2874 23.1676 28.9523 23.1622 28.6226 23.1676C20.1856 23.3514 13.4674 30.3669 13.6511 38.766V50.4135C13.6457 50.7459 13.6484 51.0783 13.662 51.4134C14.0322 59.845 21.1747 66.4525 29.5117 66.039C33.1357 66.1038 36.8245 66.1336 40.5295 66.1336C44.2562 66.1336 47.9991 66.1038 51.723 66.0363C52.0608 66.0498 52.3959 66.0552 52.7283 66.0471C56.8144 65.9579 60.6221 64.2851 63.4489 61.3286C66.2756 58.3749 67.7836 54.4969 67.6917 50.4514V38.812C67.6998 38.4796 67.6971 38.1445 67.6836 37.8094Z" fill="#7E43C6"/>
</svg>
