<svg width="80" height="80" viewBox="0 0 80 80" fill="none" xmlns="http://www.w3.org/2000/svg">
<circle cx="39.7912" cy="40.1977" r="39.3783" transform="rotate(180 39.7912 40.1977)" fill="white"/>
<path d="M56.6228 25.836C55.4427 25.8375 54.2799 26.1208 53.2313 26.6623C52.1827 27.2038 51.2786 27.9879 50.5941 28.9492L29.4441 22.8958C29.343 21.4981 28.8477 20.1578 28.0158 19.0301C27.1839 17.9025 26.0493 17.0338 24.7438 16.5247C23.4382 16.0156 22.0151 15.8871 20.6394 16.154C19.2637 16.4209 17.9919 17.0722 16.9714 18.0325C15.9508 18.9928 15.2234 20.2228 14.8735 21.5797C14.5236 22.9366 14.5654 24.3649 14.9943 25.699C15.4231 27.0331 16.2213 28.2183 17.2963 29.1172C18.3714 30.0161 19.6792 30.5918 21.0681 30.7776L25.565 51.7547C24.3555 52.4976 23.3848 53.5721 22.7682 54.8505C22.1516 56.1289 21.915 57.5575 22.0866 58.9665C22.2581 60.3755 22.8306 61.7055 23.7359 62.7987C24.6413 63.8918 25.8415 64.702 27.1938 65.133C28.5462 65.564 29.9938 65.5977 31.3647 65.23C32.7356 64.8623 33.9722 64.1088 34.9274 63.0589C35.8825 62.0091 36.5162 60.707 36.7531 59.3076C36.9899 57.9081 36.82 56.4701 36.2635 55.1644L53.139 39.8454C54.2163 40.3976 55.4124 40.6776 56.6228 40.6608C58.5887 40.6608 60.4741 39.8798 61.8642 38.4898C63.2543 37.0997 64.0352 35.2143 64.0352 33.2484C64.0352 31.2825 63.2543 29.3972 61.8642 28.0071C60.4741 26.617 58.5887 25.836 56.6228 25.836ZM30.4077 50.544L25.9109 29.6658C26.7537 29.1487 27.4846 28.4682 28.0605 27.6644L49.2105 33.7179C49.2487 34.5665 49.4326 35.4023 49.754 36.1887L32.8785 51.5076C32.1195 51.0405 31.2826 50.714 30.4077 50.544ZM19.5609 23.3652C19.5609 22.8766 19.7058 22.3989 19.9773 21.9925C20.2488 21.5862 20.6347 21.2695 21.0862 21.0825C21.5377 20.8955 22.0345 20.8466 22.5138 20.9419C22.993 21.0373 23.4333 21.2726 23.7788 21.6181C24.1244 21.9637 24.3597 22.4039 24.455 22.8832C24.5504 23.3625 24.5015 23.8593 24.3144 24.3108C24.1274 24.7622 23.8107 25.1481 23.4044 25.4196C22.9981 25.6911 22.5204 25.836 22.0317 25.836C21.3764 25.836 20.748 25.5757 20.2846 25.1123C19.8212 24.649 19.5609 24.0205 19.5609 23.3652ZM29.4441 60.4271C28.9554 60.4271 28.4777 60.2822 28.0714 60.0107C27.6651 59.7393 27.3484 59.3534 27.1614 58.9019C26.9744 58.4504 26.9255 57.9536 27.0208 57.4743C27.1161 56.995 27.3514 56.5548 27.697 56.2092C28.0425 55.8637 28.4828 55.6284 28.9621 55.533C29.4414 55.4377 29.9382 55.4866 30.3896 55.6736C30.8411 55.8606 31.227 56.1773 31.4985 56.5837C31.77 56.99 31.9149 57.4677 31.9149 57.9564C31.9149 58.6116 31.6546 59.2401 31.1912 59.7035C30.7279 60.1668 30.0994 60.4271 29.4441 60.4271ZM56.6228 35.7192C56.1342 35.7192 55.6565 35.5743 55.2501 35.3028C54.8438 35.0313 54.5271 34.6454 54.3401 34.1939C54.1531 33.7425 54.1042 33.2457 54.1995 32.7664C54.2949 32.2871 54.5302 31.8468 54.8757 31.5013C55.2213 31.1557 55.6615 30.9204 56.1408 30.8251C56.6201 30.7298 57.1169 30.7787 57.5684 30.9657C58.0199 31.1527 58.4057 31.4694 58.6772 31.8757C58.9487 32.282 59.0936 32.7597 59.0936 33.2484C59.0936 33.9037 58.8333 34.5322 58.37 34.9955C57.9066 35.4589 57.2781 35.7192 56.6228 35.7192Z" fill="#935ED0"/>
</svg>
