<svg width="80" height="79" viewBox="0 0 80 79" fill="none" xmlns="http://www.w3.org/2000/svg">
<circle cx="39.7902" cy="39.5072" r="39.3783" transform="rotate(180 39.7902 39.5072)" fill="white"/>
<g clip-path="url(#clip0_7_1210)">
<path d="M48.592 28.8517C47.4925 28.8517 46.4177 28.5257 45.5034 27.9148C44.5892 27.304 43.8767 26.4357 43.4559 25.4199C43.0351 24.4041 42.925 23.2863 43.1395 22.2079C43.354 21.1295 43.8835 20.1389 44.661 19.3614C45.4385 18.584 46.429 18.0545 47.5074 17.84C48.5858 17.6255 49.7036 17.7356 50.7195 18.1563C51.7353 18.5771 52.6035 19.2896 53.2144 20.2039C53.8252 21.1181 54.1513 22.1929 54.1513 23.2924C54.1497 24.7664 53.5634 26.1794 52.5212 27.2217C51.479 28.2639 50.0659 28.8501 48.592 28.8517ZM48.592 21.4393C48.2255 21.4393 47.8672 21.548 47.5625 21.7517C47.2577 21.9553 47.0202 22.2447 46.88 22.5833C46.7397 22.9219 46.703 23.2945 46.7745 23.654C46.846 24.0134 47.0225 24.3436 47.2817 24.6028C47.5408 24.8619 47.871 25.0384 48.2305 25.1099C48.5899 25.1814 48.9625 25.1447 49.3012 25.0045C49.6398 24.8642 49.9292 24.6267 50.1328 24.322C50.3364 24.0172 50.4451 23.659 50.4451 23.2924C50.4446 22.8011 50.2492 22.3301 49.9017 21.9827C49.5543 21.6353 49.0833 21.4399 48.592 21.4393Z" fill="#935ED0"/>
<path d="M48.592 45.5297C47.4925 45.5297 46.4177 45.2037 45.5034 44.5928C44.5892 43.9819 43.8767 43.1137 43.4559 42.0979C43.0351 41.082 42.925 39.9643 43.1395 38.8859C43.354 37.8075 43.8835 36.8169 44.661 36.0394C45.4385 35.2619 46.429 34.7325 47.5074 34.518C48.5858 34.3034 49.7036 34.4135 50.7195 34.8343C51.7353 35.2551 52.6035 35.9676 53.2144 36.8818C53.8252 37.7961 54.1513 38.8709 54.1513 39.9704C54.1497 41.4443 53.5634 42.8574 52.5212 43.8996C51.479 44.9419 50.0659 45.5281 48.592 45.5297ZM48.592 38.1173C48.2255 38.1173 47.8672 38.226 47.5625 38.4296C47.2577 38.6333 47.0202 38.9227 46.88 39.2613C46.7397 39.5999 46.703 39.9725 46.7745 40.3319C46.846 40.6914 47.0225 41.0216 47.2817 41.2808C47.5408 41.5399 47.871 41.7164 48.2305 41.7879C48.5899 41.8594 48.9625 41.8227 49.3012 41.6825C49.6398 41.5422 49.9292 41.3047 50.1328 40.9999C50.3364 40.6952 50.4451 40.3369 50.4451 39.9704C50.4446 39.4791 50.2492 39.0081 49.9017 38.6607C49.5543 38.3133 49.0833 38.1179 48.592 38.1173Z" fill="#935ED0"/>
<path d="M63.4172 45.5297C62.3177 45.5297 61.2428 45.2037 60.3286 44.5928C59.4144 43.9819 58.7019 43.1137 58.2811 42.0979C57.8603 41.082 57.7502 39.9643 57.9647 38.8859C58.1792 37.8075 58.7087 36.8169 59.4862 36.0394C60.2637 35.2619 61.2542 34.7325 62.3326 34.518C63.411 34.3034 64.5288 34.4135 65.5446 34.8343C66.5605 35.2551 67.4287 35.9676 68.0396 36.8818C68.6504 37.7961 68.9765 38.8709 68.9765 39.9704C68.9749 41.4443 68.3886 42.8574 67.3464 43.8996C66.3042 44.9419 64.8911 45.5281 63.4172 45.5297ZM63.4172 38.1173C63.0507 38.1173 62.6924 38.226 62.3877 38.4296C62.0829 38.6333 61.8454 38.9227 61.7052 39.2613C61.5649 39.5999 61.5282 39.9725 61.5997 40.3319C61.6712 40.6914 61.8477 41.0216 62.1069 41.2808C62.366 41.5399 62.6962 41.7164 63.0557 41.7879C63.4151 41.8594 63.7877 41.8227 64.1263 41.6825C64.465 41.5422 64.7544 41.3047 64.958 40.9999C65.1616 40.6952 65.2703 40.3369 65.2703 39.9704C65.2698 39.4791 65.0743 39.0081 64.7269 38.6607C64.3795 38.3133 63.9085 38.1179 63.4172 38.1173Z" fill="#935ED0"/>
<path d="M48.592 62.2072C47.4925 62.2072 46.4177 61.8812 45.5034 61.2703C44.5892 60.6594 43.8767 59.7912 43.4559 58.7754C43.0351 57.7595 42.925 56.6417 43.1395 55.5633C43.354 54.485 43.8835 53.4944 44.661 52.7169C45.4385 51.9394 46.429 51.41 47.5074 51.1954C48.5858 50.9809 49.7036 51.091 50.7195 51.5118C51.7353 51.9326 52.6035 52.6451 53.2144 53.5593C53.8252 54.4736 54.1513 55.5484 54.1513 56.6479C54.1497 58.1218 53.5634 59.5349 52.5212 60.5771C51.479 61.6194 50.0659 62.2056 48.592 62.2072ZM48.592 54.7948C48.2255 54.7948 47.8672 54.9035 47.5625 55.1071C47.2577 55.3107 47.0202 55.6002 46.88 55.9388C46.7397 56.2774 46.703 56.65 46.7745 57.0094C46.846 57.3689 47.0225 57.6991 47.2817 57.9583C47.5408 58.2174 47.871 58.3939 48.2305 58.4654C48.5899 58.5369 48.9625 58.5002 49.3012 58.3599C49.6398 58.2197 49.9292 57.9822 50.1328 57.6774C50.3364 57.3727 50.4451 57.0144 50.4451 56.6479C50.4446 56.1566 50.2492 55.6856 49.9017 55.3382C49.5543 54.9908 49.0833 54.7954 48.592 54.7948Z" fill="#935ED0"/>
<path d="M39.3273 14.0271H35.6211V65.9138H39.3273V14.0271Z" fill="#935ED0"/>
<path d="M26.3552 62.2072C25.2557 62.2072 24.1808 61.8812 23.2666 61.2703C22.3524 60.6594 21.6398 59.7912 21.2191 58.7754C20.7983 57.7595 20.6882 56.6417 20.9027 55.5633C21.1172 54.485 21.6467 53.4944 22.4242 52.7169C23.2017 51.9394 24.1922 51.41 25.2706 51.1954C26.349 50.9809 27.4668 51.091 28.4826 51.5118C29.4985 51.9326 30.3667 52.6451 30.9776 53.5593C31.5884 54.4736 31.9145 55.5484 31.9145 56.6479C31.9129 58.1218 31.3266 59.5349 30.2844 60.5771C29.2422 61.6194 27.8291 62.2056 26.3552 62.2072ZM26.3552 54.7948C25.9887 54.7948 25.6304 54.9035 25.3257 55.1071C25.0209 55.3107 24.7834 55.6002 24.6431 55.9388C24.5029 56.2774 24.4662 56.65 24.5377 57.0094C24.6092 57.3689 24.7857 57.6991 25.0449 57.9583C25.304 58.2174 25.6342 58.3939 25.9937 58.4654C26.3531 58.5369 26.7257 58.5002 27.0643 58.3599C27.4029 58.2197 27.6924 57.9822 27.896 57.6774C28.0996 57.3727 28.2083 57.0144 28.2083 56.6479C28.2077 56.1566 28.0123 55.6856 27.6649 55.3382C27.3175 54.9908 26.8465 54.7954 26.3552 54.7948Z" fill="#935ED0"/>
<path d="M26.3552 45.5297C25.2557 45.5297 24.1808 45.2037 23.2666 44.5928C22.3524 43.9819 21.6398 43.1137 21.2191 42.0979C20.7983 41.082 20.6882 39.9643 20.9027 38.8859C21.1172 37.8075 21.6467 36.8169 22.4242 36.0394C23.2017 35.2619 24.1922 34.7325 25.2706 34.518C26.349 34.3034 27.4668 34.4135 28.4826 34.8343C29.4985 35.2551 30.3667 35.9676 30.9776 36.8818C31.5884 37.7961 31.9145 38.8709 31.9145 39.9704C31.9129 41.4443 31.3266 42.8574 30.2844 43.8996C29.2422 44.9419 27.8291 45.5281 26.3552 45.5297ZM26.3552 38.1173C25.9887 38.1173 25.6304 38.226 25.3257 38.4296C25.0209 38.6333 24.7834 38.9227 24.6431 39.2613C24.5029 39.5999 24.4662 39.9725 24.5377 40.3319C24.6092 40.6914 24.7857 41.0216 25.0449 41.2808C25.304 41.5399 25.6342 41.7164 25.9937 41.7879C26.3531 41.8594 26.7257 41.8227 27.0643 41.6825C27.4029 41.5422 27.6924 41.3047 27.896 40.9999C28.0996 40.6952 28.2083 40.3369 28.2083 39.9704C28.2077 39.4791 28.0123 39.0081 27.6649 38.6607C27.3175 38.3133 26.8465 38.1179 26.3552 38.1173Z" fill="#935ED0"/>
<path d="M26.3552 28.8517C25.2557 28.8517 24.1808 28.5257 23.2666 27.9148C22.3524 27.304 21.6398 26.4357 21.2191 25.4199C20.7983 24.4041 20.6882 23.2863 20.9027 22.2079C21.1172 21.1295 21.6467 20.1389 22.4242 19.3614C23.2017 18.584 24.1922 18.0545 25.2706 17.84C26.349 17.6255 27.4668 17.7356 28.4826 18.1563C29.4985 18.5771 30.3667 19.2896 30.9776 20.2039C31.5884 21.1181 31.9145 22.1929 31.9145 23.2924C31.9129 24.7664 31.3266 26.1794 30.2844 27.2217C29.2422 28.2639 27.8291 28.8501 26.3552 28.8517ZM26.3552 21.4393C25.9887 21.4393 25.6304 21.548 25.3257 21.7517C25.0209 21.9553 24.7834 22.2447 24.6431 22.5833C24.5029 22.9219 24.4662 23.2945 24.5377 23.654C24.6092 24.0134 24.7857 24.3436 25.0449 24.6028C25.304 24.8619 25.6342 25.0384 25.9937 25.1099C26.3531 25.1814 26.7257 25.1447 27.0643 25.0045C27.4029 24.8642 27.6924 24.6267 27.896 24.322C28.0996 24.0172 28.2083 23.659 28.2083 23.2924C28.2077 22.8011 28.0123 22.3301 27.6649 21.9827C27.3175 21.6353 26.8465 21.4399 26.3552 21.4393Z" fill="#935ED0"/>
</g>
<defs>
<clipPath id="clip0_7_1210">
<rect width="59.2991" height="59.2991" fill="white" transform="translate(13.3838 10.3208)"/>
</clipPath>
</defs>
</svg>
