<svg width="24" height="24" viewBox="0 0 24 24" fill="none" xmlns="http://www.w3.org/2000/svg">
<path d="M21.327 11.3251C20.427 11.1728 19.4895 11.0731 18.7275 11.0461L18.5925 11.0416C18.624 10.9741 18.6472 10.9291 18.6547 10.9216C18.6712 10.9081 18.6847 10.8511 18.6862 10.7956C18.6862 10.7656 18.6997 10.6651 18.7207 10.5331C18.9277 10.5406 19.2007 10.5466 19.5007 10.5481C20.6527 10.5578 21.8587 10.6508 22.686 10.7971C23.1787 10.8841 23.3415 10.8811 22.9785 10.7926C22.6095 10.7026 21.5175 10.5721 20.6475 10.5151C20.0095 10.4767 19.3703 10.4612 18.7312 10.4686C18.7462 10.3831 18.7612 10.2886 18.7792 10.1911C18.8482 9.81307 18.8715 9.43357 18.873 8.67832C18.8745 7.50832 18.8115 7.18582 18.4305 6.41032C18.2865 6.11153 18.1037 5.83312 17.8867 5.58232C18.072 5.03482 18.0667 4.18882 17.8755 3.44632C17.718 2.83732 17.6617 2.79832 17.1105 2.91532C16.6417 3.01507 16.2667 3.15082 15.786 3.39307C15.558 3.50782 15.2445 3.68557 15.0172 3.82657C14.4247 3.61882 13.812 3.48157 13.1572 3.40657C12.495 3.33157 10.8697 3.37357 10.2922 3.48007C9.72971 3.58507 9.22121 3.71257 8.76221 3.86257C8.53196 3.72157 8.19971 3.53032 7.96121 3.41032C7.47821 3.16732 7.10321 3.03232 6.63371 2.93257C6.08321 2.81482 6.02621 2.85457 5.86871 3.46357C5.67371 4.21582 5.67221 5.07607 5.86496 5.62207C5.88746 5.68432 5.90096 5.72857 5.90621 5.76307C5.12471 6.74707 4.86971 7.84807 5.03921 9.38557C5.08421 9.78532 5.15171 10.1528 5.24771 10.4896C4.74896 10.4866 4.04021 10.5046 3.52721 10.5376C2.65571 10.5953 1.56371 10.7251 1.19471 10.8151C0.83246 10.9028 0.99371 10.9051 1.48721 10.8196C2.31446 10.6741 3.52121 10.5796 4.67321 10.5721C4.89071 10.5706 5.09321 10.5661 5.26871 10.5616C5.32121 10.7393 5.38121 10.9088 5.44871 11.0701H5.44496C4.68371 11.0971 3.74696 11.1976 2.84621 11.3476C2.17121 11.4616 1.17371 11.6881 1.05671 11.7526C0.93371 11.8216 1.03421 11.8066 1.55696 11.6738C2.51171 11.4323 3.75296 11.2463 5.29046 11.1188L5.46296 11.1038C5.79296 11.8688 6.30071 12.4538 7.01921 12.9113C7.45871 13.1903 8.16296 13.4776 8.51771 13.5226C8.61521 13.5346 8.89871 13.5931 9.14771 13.6516C9.39746 13.7101 9.88571 13.7978 10.2322 13.8481H10.2397L10.2217 13.8601C9.80171 14.0776 9.52871 14.4181 9.34421 14.9528C9.26171 14.9776 9.15971 15.0113 9.04871 15.0503C8.65121 15.1853 8.49746 15.2123 8.09621 15.2153C7.67846 15.2183 7.57871 15.2003 7.33121 15.0833C6.94741 14.8946 6.6261 14.5993 6.40571 14.2328C6.03071 13.6133 5.38046 13.1753 4.83821 13.1753C4.37621 13.1753 4.28846 13.3628 4.62296 13.6366C5.12696 14.0491 5.50346 14.4691 5.65796 14.7901L5.95571 15.4081C6.03821 15.5783 6.21221 15.8093 6.37871 15.9691C6.77021 16.3426 7.14821 16.5211 7.71221 16.6051C8.09021 16.6606 8.18321 16.6606 8.62946 16.6036C8.84471 16.5773 9.02696 16.5466 9.18896 16.5083V17.1488C9.18896 18.4733 9.17396 18.8993 9.12146 19.0238C9.02171 19.2608 8.79896 19.5038 8.58371 19.6141C8.36846 19.7243 8.30171 19.8451 8.39246 19.9561C8.44346 20.0161 8.54021 20.0266 8.86496 20.0056C9.48146 19.9681 9.91721 19.7393 10.14 19.3381C10.2105 19.2083 10.227 18.9481 10.2495 17.5981C10.2735 16.1341 10.284 15.9931 10.3792 15.7831C10.4362 15.6593 10.5195 15.5243 10.5667 15.4876C10.644 15.4231 10.6492 15.5506 10.6492 17.3026C10.6492 19.2361 10.629 19.4701 10.4355 19.8413C10.392 19.9261 10.3095 20.0363 10.2517 20.0888C10.1505 20.1811 10.1077 20.4173 10.1782 20.4886C10.2945 20.6041 10.8772 20.4226 11.1952 20.1721C11.7367 19.7431 11.8012 19.3883 11.8057 16.8271L11.808 15.3233L11.973 15.3383L12.1365 15.3533L12.1635 17.3183C12.1935 19.5323 12.198 19.5646 12.5745 19.9921C12.7882 20.2336 13.0035 20.3671 13.3545 20.4721C13.8225 20.6123 13.9635 20.3948 13.6485 20.0176C13.3057 19.6066 13.2885 19.4498 13.308 17.0213C13.3207 15.4643 13.3207 15.4643 13.4205 15.5551C13.6327 15.7471 13.6732 16.0621 13.6732 17.5223C13.6732 19.3358 13.7257 19.5083 14.3655 19.8248C14.6655 19.9711 14.748 19.9898 15.132 19.9898C15.54 19.9921 15.5647 19.9861 15.5797 19.8796C15.5925 19.7933 15.5422 19.7348 15.3517 19.6186C15.1166 19.4797 14.9309 19.2707 14.8207 19.0208C14.7795 18.9263 14.7517 18.3023 14.733 17.0183C14.706 15.2228 14.7 15.1411 14.5882 14.8598C14.4382 14.4818 14.2072 14.1833 13.9155 13.9853C13.8405 13.9358 13.764 13.8953 13.6657 13.8638C13.7857 13.8518 13.9035 13.8391 14.0167 13.8226C15.1957 13.6651 15.819 13.5346 16.3192 13.3411C17.3767 12.9338 18.093 12.2573 18.4807 11.2981C18.5152 11.2126 18.5497 11.1316 18.5782 11.0656L18.8782 11.0911C20.4157 11.2208 21.657 11.4061 22.6117 11.6483C23.1352 11.7818 23.2342 11.7983 23.1127 11.7278C22.9987 11.6641 22.0012 11.4383 21.3262 11.3251H21.327ZM16.8165 11.3011C16.6417 11.6851 16.1542 12.1786 15.7605 12.3721C15.372 12.5641 14.763 12.7096 14.073 12.7801C13.6005 12.8281 10.9702 12.8423 10.536 12.7996C9.09821 12.6586 8.29346 12.3818 7.69871 11.8276C7.13621 11.3011 6.87371 10.5863 6.91871 9.70657C6.94871 9.15607 7.08146 8.81032 7.42871 8.39032C7.74371 8.00782 8.07671 7.77157 8.46821 7.65157C8.79671 7.55107 9.80321 7.54207 11.1547 7.62907C11.7525 7.66657 12.2467 7.66657 12.8437 7.62907C14.2582 7.53907 15.2025 7.54957 15.5512 7.65757C16.0987 7.82707 16.599 8.28307 16.899 8.89057C17.034 9.16207 17.061 9.27757 17.0805 9.69682C17.1075 10.2743 17.0077 10.8871 16.818 11.3003L16.8165 11.3011ZM9.68396 8.82157C8.87921 8.68057 8.41946 10.0591 9.03671 10.7618C9.32921 11.0948 9.58946 11.1496 9.91421 10.9471C10.2165 10.7596 10.3792 10.4071 10.3792 9.95107C10.3792 9.34207 10.1032 8.89507 9.68321 8.82007L9.68396 8.82157ZM14.5687 8.90407C13.764 8.76307 13.3035 10.1393 13.9207 10.8436C14.2155 11.1773 14.4757 11.2336 14.8012 11.0288C15.1012 10.8413 15.2662 10.4888 15.2662 10.0328C15.2662 9.42682 14.9887 8.97832 14.5687 8.90407ZM12.4042 11.6131C12.3862 11.6686 12.3022 11.7511 12.2167 11.7953C12.003 11.9056 11.8492 11.8673 11.622 11.6603C11.4817 11.5343 11.418 11.4676 11.3745 11.6003C11.3355 11.7233 11.5845 11.9701 11.778 12.0458C11.955 12.1171 12.0817 12.1193 12.273 12.0383C12.4642 11.9596 12.6307 11.7458 12.6307 11.6071C12.6307 11.4781 12.4455 11.4841 12.4035 11.6146L12.4042 11.6131ZM12.1657 11.1818C12.288 11.0731 12.3157 10.8518 12.1987 10.7333C12.0817 10.6148 11.844 10.6336 11.751 10.7656C11.6422 10.9201 11.7 11.0378 11.7772 11.1631C11.8972 11.2561 12.0585 11.2756 12.165 11.1811L12.1657 11.1818Z" fill="white"/>
</svg>
