<svg width="129" height="129" viewBox="0 0 129 129" fill="none" xmlns="http://www.w3.org/2000/svg">
<path fill-rule="evenodd" clip-rule="evenodd" d="M64.4946 5.375C31.8522 5.375 5.375 31.8469 5.375 64.5C5.375 90.6225 22.317 112.784 45.8111 120.599C48.7674 121.147 49.8424 119.32 49.8424 117.75C49.8424 116.353 49.794 112.633 49.7671 107.699C33.3196 111.268 29.8474 99.7708 29.8474 99.7708C27.1599 92.9445 23.2845 91.117 23.2845 91.117C17.9149 87.4566 23.6876 87.5265 23.6876 87.5265C29.627 87.9458 32.7445 93.6217 32.7445 93.6217C38.0174 102.652 46.5851 100.045 49.9552 98.5345C50.4927 94.7183 52.0192 92.1114 53.707 90.6332C40.5812 89.139 26.7782 84.065 26.7782 61.4094C26.7782 54.9594 29.0787 49.6757 32.8627 45.5424C32.25 44.0481 30.2236 38.0335 33.4433 29.9011C33.4433 29.9011 38.4044 28.3048 49.7026 35.9588C54.5257 34.6457 59.5014 33.977 64.5 33.97C69.5006 33.9736 74.4785 34.6423 79.3027 35.9588C90.5902 28.3048 95.546 29.8957 95.546 29.8957C98.771 38.0335 96.7446 44.0481 96.1372 45.5424C99.9266 49.6757 102.211 54.954 102.211 61.4094C102.211 84.1241 88.3865 89.1229 75.2178 90.5849C77.3409 92.4124 79.2329 96.0136 79.2329 101.534C79.2329 109.435 79.1576 115.815 79.1576 117.75C79.1576 119.336 80.2272 121.174 83.2211 120.599C106.699 112.762 123.625 90.6171 123.625 64.5C123.625 31.8469 97.1477 5.375 64.4946 5.375Z" fill="white"/>
</svg>
