<svg width="128" height="128" viewBox="0 0 128 128" fill="none" xmlns="http://www.w3.org/2000/svg">
<path d="M116 3H12C9.64031 2.97599 7.36747 3.88905 5.68019 5.53883C3.99291 7.18862 3.02901 9.44037 3 11.8V116.22C3.03426 118.576 4.00046 120.823 5.68717 122.468C7.37388 124.114 9.64373 125.024 12 125H116C118.36 125.019 120.631 124.103 122.318 122.452C124.004 120.801 124.968 118.55 125 116.19V11.77C124.958 9.41729 123.989 7.17627 122.304 5.53406C120.618 3.89185 118.353 2.98118 116 3Z" fill="#0076B2"/>
<path d="M21.06 48.73H39.17V107H21.06V48.73ZM30.12 19.73C32.1971 19.73 34.2276 20.3461 35.9545 21.5003C37.6815 22.6545 39.0273 24.2949 39.8217 26.2141C40.6161 28.1334 40.8235 30.2451 40.4175 32.2821C40.0115 34.3192 39.0105 36.1901 37.5411 37.6582C36.0716 39.1262 34.1998 40.1255 32.1623 40.5295C30.1249 40.9335 28.0133 40.7241 26.0949 39.9279C24.1764 39.1316 22.5373 37.7843 21.3847 36.0562C20.2322 34.3282 19.618 32.2971 19.62 30.22C19.6227 27.437 20.7301 24.7688 22.6989 22.8019C24.6678 20.8349 27.337 19.73 30.12 19.73ZM50.53 48.73H67.89V56.73H68.13C70.55 52.15 76.45 47.32 85.26 47.32C103.6 47.28 107 59.35 107 75V107H88.89V78.65C88.89 71.9 88.77 63.21 79.48 63.21C70.19 63.21 68.61 70.57 68.61 78.21V107H50.53V48.73Z" fill="white"/>
</svg>
