<svg width="79" height="79" viewBox="0 0 79 79" fill="none" xmlns="http://www.w3.org/2000/svg">
<circle cx="39.6217" cy="39.6217" r="39.3783" transform="rotate(180 39.6217 39.6217)" fill="white"/>
<path d="M53.1523 30.1192C52.2766 30.1203 51.4139 30.3257 50.6358 30.7184C49.8578 31.111 49.1869 31.6796 48.679 32.3767L32.9857 27.9871C32.9106 26.9736 32.5432 26.0017 31.9259 25.184C31.3086 24.3663 30.4667 23.7363 29.498 23.3672C28.5293 22.9981 27.4733 22.9049 26.4525 23.0984C25.4318 23.2919 24.4881 23.7642 23.7309 24.4606C22.9736 25.1569 22.4339 26.0488 22.1742 27.0328C21.9146 28.0167 21.9457 29.0524 22.2639 30.0198C22.582 30.9872 23.1743 31.8467 23.972 32.4985C24.7697 33.1503 25.7401 33.5678 26.7707 33.7025L30.1073 48.9138C29.2099 49.4525 28.4897 50.2317 28.0322 51.1587C27.5746 52.0857 27.3991 53.1217 27.5264 54.1434C27.6537 55.1651 28.0784 56.1295 28.7502 56.9222C29.422 57.7149 30.3125 58.3024 31.3159 58.6149C32.3194 58.9275 33.3935 58.9519 34.4108 58.6853C35.428 58.4187 36.3455 57.8722 37.0542 57.1109C37.763 56.3497 38.2332 55.4055 38.4089 54.3907C38.5847 53.3759 38.4586 52.3331 38.0457 51.3863L50.5673 40.278C51.3667 40.6784 52.2542 40.8814 53.1523 40.8692C54.611 40.8692 56.01 40.3029 57.0414 39.2949C58.0729 38.2869 58.6523 36.9197 58.6523 35.4942C58.6523 34.0687 58.0729 32.7015 57.0414 31.6935C56.01 30.6855 54.611 30.1192 53.1523 30.1192ZM33.7007 48.0359L30.364 32.8963C30.9894 32.5213 31.5317 32.0279 31.959 31.445L47.6523 35.8346C47.6807 36.45 47.8172 37.0561 48.0557 37.6263L35.534 48.7346C34.9708 48.3959 34.3498 48.1592 33.7007 48.0359ZM25.6523 28.3275C25.6523 27.9732 25.7599 27.6268 25.9613 27.3321C26.1627 27.0375 26.4491 26.8079 26.7841 26.6722C27.1191 26.5366 27.4877 26.5012 27.8433 26.5703C28.199 26.6394 28.5256 26.8101 28.782 27.0606C29.0384 27.3112 29.213 27.6304 29.2838 27.978C29.3545 28.3255 29.3182 28.6858 29.1794 29.0132C29.0407 29.3406 28.8057 29.6204 28.5042 29.8173C28.2027 30.0141 27.8483 30.1192 27.4857 30.1192C26.9994 30.1192 26.5331 29.9304 26.1893 29.5944C25.8455 29.2584 25.6523 28.8027 25.6523 28.3275ZM32.9857 55.2025C32.6231 55.2025 32.2686 55.0975 31.9671 54.9006C31.6656 54.7037 31.4306 54.4239 31.2919 54.0965C31.1531 53.7691 31.1168 53.4089 31.1876 53.0613C31.2583 52.7138 31.4329 52.3945 31.6893 52.144C31.9457 51.8934 32.2724 51.7228 32.628 51.6536C32.9836 51.5845 33.3523 51.62 33.6872 51.7556C34.0222 51.8912 34.3086 52.1208 34.51 52.4155C34.7115 52.7101 34.819 53.0565 34.819 53.4109C34.819 53.886 34.6258 54.3418 34.282 54.6778C33.9382 55.0138 33.4719 55.2025 32.9857 55.2025ZM53.1523 37.2859C52.7897 37.2859 52.4353 37.1808 52.1338 36.9839C51.8323 36.787 51.5973 36.5072 51.4585 36.1798C51.3198 35.8525 51.2835 35.4922 51.3542 35.1447C51.425 34.7971 51.5996 34.4779 51.856 34.2273C52.1124 33.9767 52.439 33.8061 52.7947 33.737C53.1503 33.6678 53.5189 33.7033 53.8539 33.8389C54.1889 33.9745 54.4752 34.2042 54.6767 34.4988C54.8781 34.7934 54.9857 35.1398 54.9857 35.4942C54.9857 35.9694 54.7925 36.4251 54.4487 36.7611C54.1049 37.0971 53.6386 37.2859 53.1523 37.2859Z" fill="#1E1E1E"/>
</svg>
