<svg width="381" height="382" viewBox="0 0 381 382" fill="none" xmlns="http://www.w3.org/2000/svg">
<path d="M191.928 362.051H196.417V376.596H191.729C190.318 376.596 189.111 376.305 188.107 375.723C187.103 375.145 186.334 374.314 185.799 373.23C185.264 372.15 184.996 370.858 184.996 369.352C184.996 367.837 185.266 366.532 185.806 365.439C186.346 364.35 187.132 363.512 188.164 362.924C189.196 362.342 190.451 362.051 191.928 362.051ZM194.655 363.613H192.042C190.839 363.613 189.843 363.845 189.052 364.309C188.261 364.773 187.672 365.434 187.283 366.291C186.895 367.148 186.701 368.168 186.701 369.352C186.701 370.526 186.893 371.537 187.276 372.385C187.66 373.237 188.233 373.89 188.995 374.345C189.757 374.804 190.707 375.034 191.843 375.034H194.655V363.613Z" fill="white"/>
<path d="M173.118 361.202L171.219 375.623L162.516 374.477L162.72 372.928L169.677 373.844L170.319 368.971L163.812 368.115L164.016 366.566L170.523 367.422L171.168 362.521L164.098 361.591L164.302 360.042L173.118 361.202Z" fill="white"/>
<path d="M147.091 371.438L146.089 358.493L145.924 358.449L138.584 369.159L136.8 368.681L145.724 356.013L147.48 356.484L148.874 371.916L147.091 371.438Z" fill="white"/>
<path d="M129.668 350.833L124.102 364.271L115.992 360.912L116.59 359.468L123.072 362.153L124.953 357.613L118.89 355.101L119.488 353.658L125.551 356.169L127.443 351.602L120.855 348.873L121.453 347.43L129.668 350.833Z" fill="white"/>
<path d="M107.629 340.508L100.357 353.105L98.8312 352.224L105.323 340.981L99.4672 337.6L100.248 336.247L107.629 340.508Z" fill="white"/>
<path d="M76.1088 327.785C77.0427 326.568 78.0695 325.685 79.1892 325.136C80.309 324.587 81.4365 324.365 82.5717 324.473C83.707 324.58 84.7667 325.011 85.7509 325.766C86.7351 326.521 87.4258 327.433 87.8232 328.502C88.2205 329.571 88.2989 330.717 88.0581 331.941C87.8174 333.165 87.23 334.385 86.2961 335.602C85.3623 336.819 84.3354 337.703 83.2157 338.252C82.0959 338.801 80.9684 339.022 79.8332 338.915C78.6979 338.808 77.6382 338.377 76.654 337.621C75.6699 336.866 74.9791 335.954 74.5817 334.885C74.1844 333.817 74.1061 332.67 74.3468 331.447C74.5876 330.223 75.1749 329.002 76.1088 327.785ZM77.4611 328.823C76.6944 329.822 76.2144 330.794 76.0213 331.738C75.8244 332.679 75.874 333.543 76.1703 334.332C76.4628 335.117 76.9584 335.778 77.6571 336.314C78.3558 336.85 79.1242 337.159 79.9624 337.242C80.7968 337.321 81.6449 337.145 82.5067 336.714C83.3647 336.28 84.1771 335.564 84.9438 334.565C85.7106 333.565 86.1924 332.595 86.3893 331.654C86.5824 330.71 86.5328 329.846 86.2402 329.06C85.944 328.272 85.4465 327.61 84.7478 327.073C84.0491 326.537 83.2826 326.23 82.4482 326.15C81.61 326.068 80.7619 326.244 79.9038 326.678C79.042 327.109 78.2278 327.824 77.4611 328.823Z" fill="white"/>
<path d="M73.4948 315.622L63.2096 325.907L59.7343 322.432C58.9275 321.625 58.4135 320.82 58.1926 320.016C57.9649 319.213 57.9733 318.441 58.2177 317.701C58.4621 316.961 58.8873 316.288 59.4933 315.682C60.0993 315.076 60.7739 314.649 61.5172 314.402C62.2571 314.151 63.0305 314.134 63.8374 314.351C64.6409 314.572 65.4428 315.083 66.2429 315.883L68.7339 318.374L67.629 319.479L65.1783 317.028C64.6258 316.476 64.0868 316.128 63.5612 315.984C63.0355 315.84 62.535 315.855 62.0596 316.029C61.5774 316.203 61.1305 316.496 60.7187 316.908C60.3069 317.319 60.0156 317.765 59.8448 318.244C59.6707 318.719 59.6607 319.218 59.8147 319.74C59.9654 320.266 60.3202 320.808 60.8794 321.367L63.069 323.557L72.2493 314.377L73.4948 315.622Z" fill="white"/>
<path d="M47.2279 308.801L45.9482 307.133L52.5178 295.861L52.414 295.726L39.826 299.154L38.5462 297.487L50.0859 288.632L51.0889 289.939L42.3215 296.667L42.408 296.779L53.9425 293.658L54.911 294.92L48.9106 305.254L48.9971 305.366L57.7646 298.639L58.7676 299.946L47.2279 308.801Z" fill="white"/>
<path d="M44.9957 280.604L32.3989 287.877L28.0097 280.275L29.3629 279.493L32.8714 285.57L37.1277 283.113L33.8465 277.43L35.1997 276.648L38.4809 282.332L42.7618 279.86L39.1965 273.685L40.5496 272.903L44.9957 280.604Z" fill="white"/>
<path d="M16.9911 256.435L30.4293 250.868L31.0816 252.443L23.5637 264.136L23.6181 264.268L34.1692 259.897L34.8432 261.524L21.405 267.091L20.7527 265.516L28.286 253.786L28.2316 253.654L17.6543 258.036L16.9911 256.435Z" fill="white"/>
<path d="M14.5794 244.48L13.0701 244.885L10.2466 234.347L11.7559 233.943L12.9397 238.361L25.4802 235.001L25.9361 236.702L13.3956 240.062L14.5794 244.48Z" fill="white"/>
<path d="M5.17886 190.566H19.7243V192.327H5.17886V190.566Z" fill="white"/>
<path d="M10.7288 164.539C10.0041 164.53 9.40506 164.799 8.93163 165.348C8.45819 165.897 8.164 166.608 8.04905 167.481C7.965 168.12 7.99473 168.692 8.13824 169.198C8.28237 169.699 8.51756 170.108 8.8438 170.423C9.17065 170.733 9.5641 170.919 10.0241 170.979C10.4091 171.03 10.7521 170.982 11.0532 170.835C11.3501 170.684 11.6093 170.474 11.8307 170.207C12.0474 169.94 12.2355 169.654 12.3949 169.35C12.5496 169.046 12.6797 168.764 12.7854 168.506L13.3725 167.093C13.5205 166.731 13.7117 166.331 13.9459 165.894C14.1808 165.452 14.4763 165.04 14.8323 164.657C15.1843 164.268 15.6109 163.966 16.1121 163.751C16.6133 163.535 17.2019 163.471 17.8779 163.56C18.6572 163.663 19.3344 163.96 19.9097 164.451C20.4856 164.938 20.9077 165.595 21.1759 166.423C21.4448 167.246 21.5063 168.212 21.3605 169.32C21.2245 170.353 20.9401 171.225 20.5073 171.937C20.0751 172.644 19.5325 173.174 18.8795 173.528C18.2271 173.876 17.5028 174.027 16.7068 173.98L16.9441 172.177C17.4948 172.202 17.9696 172.078 18.3684 171.806C18.7631 171.528 19.0797 171.154 19.3183 170.684C19.5528 170.209 19.7078 169.685 19.7832 169.112C19.8709 168.446 19.8418 167.833 19.6957 167.274C19.5449 166.714 19.295 166.254 18.9462 165.893C18.5927 165.531 18.153 165.316 17.6272 165.247C17.1484 165.184 16.7412 165.266 16.4055 165.494C16.0698 165.722 15.7794 166.042 15.5341 166.454C15.2889 166.866 15.0625 167.316 14.8549 167.804L14.1143 169.512C13.6421 170.596 13.0622 171.427 12.3748 172.005C11.6874 172.583 10.8579 172.808 9.88616 172.68C9.07873 172.574 8.40332 172.263 7.85992 171.747C7.31244 171.227 6.92088 170.573 6.68523 169.788C6.4455 168.997 6.3862 168.141 6.50733 167.221C6.6297 166.292 6.90512 165.487 7.3336 164.808C7.75738 164.129 8.28343 163.615 8.91176 163.268C9.54071 162.916 10.2205 162.777 10.9513 162.849L10.7288 164.539Z" fill="white"/>
<path d="M18.4329 126.168L16.9893 125.57L21.164 115.491L22.6076 116.089L20.8573 120.315L32.8519 125.283L32.1779 126.91L20.1832 121.942L18.4329 126.168Z" fill="white"/>
<path d="M40.2125 109.681L27.6158 102.408L28.4964 100.882L34.1059 104.121L37.9838 97.4044L32.3743 94.1658L33.255 92.6404L45.8517 99.9131L44.971 101.439L39.3369 98.1857L35.4591 104.902L41.0932 108.155L40.2125 109.681Z" fill="white"/>
<path d="M52.2043 90.6074L40.6646 81.7527L46.0085 74.7883L47.2482 75.7395L42.9764 81.3065L46.8756 84.2984L50.8706 79.092L52.1102 80.0432L48.1152 85.2496L52.0369 88.2588L56.3778 82.6017L57.6174 83.5528L52.2043 90.6074Z" fill="white"/>
<path d="M82.4887 58.4863L73.634 46.9466L77.5331 43.9547C78.4346 43.2629 79.2928 42.8491 80.1077 42.7132C80.9196 42.5736 81.6693 42.6639 82.3565 42.984C83.0438 43.3041 83.6483 43.8041 84.17 44.484C84.6917 45.1639 85.0154 45.8735 85.1409 46.6127C85.2665 47.3519 85.1572 48.0922 84.8131 48.8337C84.466 49.5715 83.8455 50.2834 82.9515 50.9694L79.7961 53.3906L78.8276 52.1284L81.9379 49.7418C82.554 49.2691 82.9806 48.7985 83.2179 48.3299C83.459 47.8585 83.5372 47.3927 83.4526 46.9324C83.3688 46.4655 83.1497 46.001 82.7952 45.539C82.4406 45.0769 82.0444 44.7394 81.6064 44.5264C81.1684 44.3134 80.6877 44.2586 80.1642 44.3619C79.6378 44.4614 79.0628 44.7504 78.4392 45.2289L75.9825 47.114L83.886 57.414L82.4887 58.4863ZM83.9427 49.1345L90.7603 52.1393L89.1375 53.3845L82.365 50.3451L83.9427 49.1345Z" fill="white"/>
<path d="M98.353 30.0518L105.626 42.6486L104.1 43.5292L96.8276 30.9325L98.353 30.0518Z" fill="white"/>
<path d="M126.162 21.7955C125.835 21.4135 125.481 21.0964 125.1 20.8443C124.721 20.586 124.318 20.3992 123.891 20.284C123.469 20.1669 123.027 20.127 122.565 20.1643C122.104 20.2016 121.631 20.3208 121.145 20.5219C120.349 20.8517 119.71 21.3571 119.229 22.0383C118.747 22.7195 118.48 23.5401 118.427 24.5C118.373 25.46 118.588 26.5218 119.07 27.6854C119.552 28.849 120.153 29.7504 120.874 30.3897C121.595 31.0289 122.373 31.4165 123.208 31.5522C124.043 31.688 124.877 31.5838 125.708 31.2395C126.478 30.9206 127.088 30.4757 127.538 29.9048C127.991 29.3278 128.256 28.6694 128.334 27.9299C128.415 27.1841 128.285 26.4 127.944 25.5777L128.486 25.4761L124.444 27.1503L123.846 25.7068L128.965 23.5868L129.562 25.0303C130.021 26.1371 130.183 27.1973 130.05 28.211C129.92 29.2229 129.536 30.1254 128.896 30.9184C128.258 31.7052 127.406 32.3197 126.338 32.7618C125.148 33.2547 123.987 33.4077 122.854 33.2211C121.725 33.0326 120.696 32.5264 119.765 31.7024C118.839 30.8766 118.082 29.755 117.495 28.3377C117.054 27.2747 116.801 26.26 116.734 25.2936C116.669 24.321 116.775 23.4263 117.052 22.6096C117.328 21.7929 117.759 21.0763 118.344 20.4598C118.93 19.8433 119.653 19.3565 120.515 18.9996C121.223 18.7061 121.928 18.5396 122.63 18.5003C123.333 18.4548 124.006 18.527 124.649 18.717C125.294 18.9009 125.89 19.1948 126.436 19.5987C126.981 19.9983 127.45 20.4987 127.842 21.0997L126.162 21.7955Z" fill="white"/>
<path d="M141.813 27.0346L138.048 12.9847L139.75 12.5289L141.426 18.7854L148.917 16.7781L147.241 10.5215L148.942 10.0657L152.707 24.1155L151.006 24.5714L149.322 18.2874L141.83 20.2947L143.514 26.5787L141.813 27.0346Z" fill="white"/>
<path d="M160.751 9.33102L160.547 7.78188L171.362 6.35796L171.566 7.9071L167.032 8.5041L168.726 21.376L166.98 21.6059L165.285 8.73401L160.751 9.33102Z" fill="white"/>
<path d="M207.955 20.7349L209.853 6.31393L214.726 6.95544C215.857 7.10438 216.755 7.43033 217.42 7.9333C218.09 8.43219 218.553 9.04953 218.809 9.78533C219.066 10.5211 219.138 11.3139 219.026 12.1636C218.914 13.0132 218.639 13.7626 218.2 14.4116C217.766 15.0613 217.163 15.5454 216.39 15.8639C215.618 16.1777 214.671 16.2608 213.549 16.1131L210.056 15.6533L210.26 14.1042L213.697 14.5566C214.471 14.6585 215.111 14.6066 215.616 14.4009C216.12 14.1951 216.508 13.8784 216.779 13.4509C217.056 13.0193 217.232 12.5148 217.308 11.9374C217.384 11.36 217.344 10.8294 217.188 10.3456C217.037 9.86242 216.741 9.46053 216.301 9.13992C215.861 8.81462 215.25 8.60036 214.466 8.49715L211.396 8.09297L209.701 20.9649L207.955 20.7349Z" fill="white"/>
<path d="M230.695 24.6117L228.911 24.1337L237.835 11.4662L239.591 11.9368L240.985 27.369L239.202 26.891L238.172 13.939L238.062 13.9095L230.695 24.6117ZM232.824 19.2999L240.014 21.2264L239.609 22.7356L232.42 20.8092L232.824 19.2999Z" fill="white"/>
<path d="M255.608 18.6577L256.205 17.2142L266.284 21.3889L265.686 22.8325L261.461 21.0821L256.492 33.0768L254.865 32.4028L259.833 20.4081L255.608 18.6577Z" fill="white"/>
<path d="M272.095 40.4374L279.367 27.8406L280.893 28.7213L277.654 34.3308L284.371 38.2087L287.609 32.5992L289.135 33.4799L281.862 46.0766L280.337 45.1959L283.589 39.5618L276.873 35.684L273.62 41.3181L272.095 40.4374Z" fill="white"/>
<path d="M316.625 56.5868L317.73 55.482L325.444 63.1959L324.339 64.3007L321.105 61.0665L311.924 70.2468L310.679 69.0014L319.859 59.821L316.625 56.5868Z" fill="white"/>
<path d="M336.937 88.5534C335.72 89.4873 334.499 90.0746 333.276 90.3153C332.052 90.5561 330.906 90.4778 329.837 90.0804C328.768 89.683 327.856 88.9923 327.101 88.0081C326.346 87.0239 325.914 85.9642 325.807 84.829C325.7 83.6937 325.921 82.5662 326.47 81.4465C327.02 80.3267 327.903 79.2999 329.12 78.366C330.337 77.4321 331.557 76.8448 332.781 76.604C334.005 76.3633 335.151 76.4416 336.22 76.839C337.289 77.2363 338.201 77.9271 338.956 78.9113C339.711 79.8954 340.142 80.9552 340.25 82.0904C340.357 83.2257 340.136 84.3532 339.586 85.4729C339.037 86.5927 338.154 87.6195 336.937 88.5534ZM335.899 87.2011C336.898 86.4343 337.614 85.6201 338.044 84.7583C338.478 83.9003 338.654 83.0521 338.572 82.214C338.493 81.3796 338.185 80.613 337.649 79.9143C337.113 79.2156 336.45 78.7182 335.662 78.4219C334.877 78.1294 334.012 78.0797 333.068 78.2729C332.127 78.4698 331.157 78.9516 330.158 79.7183C329.158 80.485 328.442 81.2974 328.008 82.1554C327.577 83.0172 327.401 83.8653 327.481 84.6997C327.563 85.5379 327.872 86.3063 328.408 87.005C328.944 87.7037 329.605 88.1993 330.39 88.4918C331.179 88.7881 332.043 88.8378 332.985 88.6409C333.928 88.4477 334.9 87.9678 335.899 87.2011Z" fill="white"/>
<path d="M359.98 126.387C360.362 126.06 360.679 125.706 360.931 125.324C361.189 124.946 361.376 124.543 361.491 124.116C361.608 123.693 361.648 123.251 361.611 122.79C361.574 122.329 361.454 121.856 361.253 121.37C360.923 120.574 360.418 119.935 359.737 119.454C359.056 118.972 358.235 118.705 357.275 118.652C356.315 118.598 355.253 118.812 354.09 119.294C352.926 119.776 352.025 120.378 351.385 121.099C350.746 121.82 350.359 122.598 350.223 123.433C350.087 124.268 350.191 125.101 350.536 125.933C350.854 126.702 351.299 127.313 351.87 127.763C352.447 128.216 353.106 128.481 353.845 128.559C354.591 128.64 355.375 128.51 356.197 128.169L356.299 128.711L354.625 124.669L356.068 124.071L358.188 129.189L356.745 129.787C355.638 130.246 354.578 130.408 353.564 130.275C352.552 130.145 351.65 129.761 350.857 129.121C350.07 128.483 349.455 127.63 349.013 126.563C348.52 125.373 348.367 124.212 348.554 123.079C348.742 121.95 349.249 120.92 350.073 119.99C350.898 119.063 352.02 118.307 353.437 117.72C354.5 117.279 355.515 117.026 356.481 116.958C357.454 116.894 358.349 117 359.165 117.277C359.982 117.553 360.699 117.984 361.315 118.569C361.932 119.154 362.419 119.878 362.775 120.74C363.069 121.448 363.235 122.153 363.275 122.854C363.32 123.558 363.248 124.231 363.058 124.874C362.874 125.519 362.58 126.115 362.176 126.661C361.777 127.206 361.276 127.675 360.675 128.067L359.98 126.387Z" fill="white"/>
<path d="M354.641 141.667L368.691 137.902L369.963 142.65C370.257 143.747 370.311 144.699 370.125 145.503C369.943 146.307 369.573 146.965 369.014 147.478C368.455 147.99 367.762 148.357 366.934 148.579C366.106 148.801 365.327 148.828 364.596 148.661C363.865 148.494 363.223 148.11 362.67 147.508C362.121 146.906 361.701 146.06 361.409 144.971L360.379 141.13L361.916 140.718L362.931 144.505C363.132 145.255 363.403 145.829 363.745 146.228C364.089 146.631 364.489 146.881 364.947 146.979C365.41 147.08 365.923 147.056 366.486 146.905C367.048 146.754 367.512 146.517 367.876 146.194C368.241 145.871 368.475 145.448 368.58 144.925C368.69 144.4 368.643 143.759 368.439 142.999L367.638 140.008L355.097 143.368L354.641 141.667ZM362.725 146.589L357.34 151.738L356.81 149.762L362.21 144.668L362.725 146.589Z" fill="white"/>
<path d="M359.748 164.004L374.169 162.105L375.315 170.809L373.766 171.013L372.85 164.056L367.977 164.697L368.833 171.203L367.284 171.407L366.428 164.901L361.527 165.546L362.458 172.616L360.908 172.82L359.748 164.004Z" fill="white"/>
<path d="M361.826 186.495V184.648L376.371 189.989V191.808L361.826 197.148V195.302L374.07 190.955V190.842L361.826 186.495ZM367.508 187.177V194.62H365.945V187.177H367.508Z" fill="white"/>
<path d="M374.025 209.018L375.574 209.222L374.15 220.038L372.601 219.834L373.198 215.299L360.326 213.604L360.556 211.858L373.428 213.553L374.025 209.018Z" fill="white"/>
<path d="M368.481 244.88L354.432 241.116L354.873 239.469L367.955 234.769L367.992 234.632L356.961 231.676L357.417 229.975L371.467 233.739L371.025 235.386L357.908 240.106L357.871 240.243L368.93 243.206L368.481 244.88Z" fill="white"/>
<path d="M350.608 252.107L364.046 257.673L360.687 265.784L359.243 265.186L361.928 258.703L357.388 256.822L354.876 262.885L353.433 262.287L355.944 256.224L351.377 254.332L348.649 260.92L347.205 260.322L350.608 252.107Z" fill="white"/>
<path d="M346.99 284.348C347.656 284.634 348.313 284.614 348.96 284.288C349.608 283.962 350.152 283.417 350.592 282.655C350.914 282.097 351.105 281.557 351.166 281.034C351.225 280.516 351.164 280.049 350.983 279.633C350.8 279.221 350.508 278.899 350.106 278.667C349.769 278.473 349.434 278.386 349.1 278.406C348.767 278.433 348.448 278.527 348.141 278.689C347.839 278.853 347.555 279.045 347.292 279.265C347.033 279.487 346.805 279.697 346.608 279.895L345.525 280.976C345.25 281.254 344.92 281.55 344.536 281.865C344.15 282.183 343.719 282.451 343.244 282.669C342.77 282.893 342.26 283.008 341.715 283.016C341.169 283.023 340.601 282.857 340.011 282.516C339.33 282.123 338.818 281.589 338.474 280.915C338.129 280.246 337.99 279.477 338.059 278.609C338.126 277.745 338.439 276.83 338.997 275.862C339.518 274.96 340.115 274.263 340.787 273.771C341.457 273.283 342.161 273 342.9 272.924C343.636 272.851 344.363 272.989 345.08 273.338L344.171 274.912C343.671 274.679 343.186 274.612 342.713 274.71C342.242 274.816 341.806 275.04 341.406 275.383C341.008 275.732 340.664 276.157 340.375 276.657C340.039 277.24 339.831 277.817 339.752 278.389C339.678 278.964 339.732 279.485 339.916 279.952C340.105 280.421 340.428 280.789 340.888 281.054C341.306 281.295 341.714 281.375 342.111 281.293C342.508 281.211 342.899 281.026 343.283 280.739C343.668 280.453 344.049 280.124 344.428 279.752L345.765 278.457C346.617 277.637 347.47 277.091 348.327 276.82C349.183 276.549 350.035 276.658 350.884 277.148C351.589 277.555 352.094 278.101 352.399 278.786C352.706 279.476 352.817 280.23 352.734 281.046C352.653 281.868 352.381 282.681 351.917 283.485C351.448 284.297 350.886 284.935 350.23 285.398C349.578 285.864 348.896 286.137 348.182 286.217C347.467 286.301 346.785 286.17 346.138 285.824L346.99 284.348Z" fill="white"/>
<path d="M333.469 303.939C334.092 304.31 334.746 304.376 335.43 304.137C336.115 303.898 336.725 303.429 337.261 302.731C337.653 302.22 337.914 301.709 338.042 301.199C338.168 300.693 338.169 300.222 338.044 299.786C337.916 299.354 337.668 298.996 337.3 298.714C336.992 298.478 336.671 298.348 336.337 298.324C336.003 298.307 335.674 298.359 335.349 298.479C335.028 298.603 334.722 298.756 334.432 298.939C334.146 299.126 333.892 299.304 333.672 299.475L332.457 300.405C332.148 300.645 331.782 300.896 331.361 301.157C330.936 301.422 330.474 301.632 329.974 301.785C329.475 301.946 328.955 301.994 328.413 301.93C327.871 301.867 327.33 301.627 326.789 301.212C326.165 300.734 325.727 300.138 325.474 299.425C325.219 298.715 325.182 297.935 325.364 297.084C325.543 296.236 325.972 295.369 326.652 294.483C327.287 293.656 327.969 293.043 328.7 292.643C329.428 292.247 330.163 292.059 330.905 292.079C331.644 292.103 332.347 292.335 333.013 292.774L331.906 294.217C331.441 293.92 330.968 293.79 330.487 293.826C330.006 293.869 329.545 294.035 329.103 294.322C328.662 294.617 328.266 294.993 327.915 295.451C327.505 295.985 327.224 296.53 327.071 297.087C326.922 297.647 326.908 298.171 327.03 298.658C327.155 299.148 327.428 299.554 327.849 299.877C328.232 300.171 328.626 300.303 329.031 300.274C329.435 300.244 329.847 300.112 330.265 299.878C330.684 299.644 331.105 299.367 331.529 299.048L333.024 297.94C333.975 297.237 334.893 296.807 335.777 296.65C336.661 296.493 337.492 296.713 338.27 297.31C338.916 297.805 339.345 298.412 339.558 299.131C339.772 299.856 339.784 300.617 339.595 301.415C339.408 302.22 339.031 302.991 338.466 303.727C337.896 304.471 337.255 305.03 336.544 305.403C335.837 305.78 335.125 305.962 334.408 305.948C333.687 305.938 333.028 305.719 332.432 305.291L333.469 303.939Z" fill="white"/>
<path d="M307.612 333.318L308.563 334.557L299.908 341.198L298.957 339.959L302.586 337.174L294.682 326.874L296.079 325.802L303.983 336.102L307.612 333.318Z" fill="white"/>
<path d="M273.267 349.283C272.5 347.955 272.077 346.668 271.998 345.423C271.919 344.179 272.147 343.053 272.68 342.045C273.214 341.037 274.018 340.223 275.092 339.603C276.166 338.982 277.273 338.693 278.413 338.735C279.552 338.777 280.641 339.143 281.68 339.834C282.718 340.525 283.621 341.534 284.388 342.863C285.155 344.191 285.578 345.478 285.657 346.723C285.736 347.968 285.509 349.094 284.975 350.102C284.442 351.109 283.638 351.923 282.563 352.544C281.489 353.164 280.382 353.453 279.243 353.411C278.103 353.369 277.014 353.003 275.976 352.312C274.937 351.622 274.034 350.612 273.267 349.283ZM274.744 348.431C275.373 349.522 276.087 350.337 276.885 350.877C277.679 351.419 278.497 351.704 279.339 351.732C280.177 351.762 280.977 351.557 281.74 351.117C282.502 350.676 283.082 350.085 283.479 349.342C283.871 348.601 284.033 347.75 283.965 346.789C283.893 345.831 283.541 344.806 282.912 343.715C282.282 342.624 281.57 341.808 280.776 341.266C279.978 340.726 279.16 340.441 278.322 340.411C277.481 340.383 276.678 340.589 275.916 341.03C275.153 341.47 274.575 342.06 274.183 342.801C273.786 343.544 273.624 344.395 273.696 345.353C273.765 346.314 274.114 347.34 274.744 348.431Z" fill="white"/>
<path d="M257.299 348.589L261.446 346.871L267.012 360.31L262.681 362.103C261.378 362.643 260.151 362.836 259.001 362.682C257.852 362.533 256.823 362.06 255.914 361.263C255.007 360.47 254.265 359.378 253.689 357.987C253.109 356.587 252.859 355.279 252.939 354.062C253.021 352.849 253.426 351.774 254.155 350.837C254.886 349.904 255.934 349.154 257.299 348.589ZM260.416 348.989L258.002 349.989C256.891 350.449 256.059 351.045 255.506 351.776C254.953 352.508 254.661 353.344 254.63 354.284C254.599 355.224 254.81 356.241 255.263 357.335C255.713 358.42 256.277 359.28 256.955 359.917C257.636 360.557 258.415 360.942 259.294 361.07C260.174 361.202 261.139 361.051 262.188 360.616L264.787 359.54L260.416 348.989Z" fill="white"/>
<path d="M239.398 355.056L241.181 354.578L239.787 370.011L238.031 370.481L229.107 357.814L230.891 357.336L238.259 368.038L238.368 368.009L239.398 355.056ZM240.21 360.721L233.02 362.648L232.616 361.138L239.805 359.212L240.21 360.721Z" fill="white"/>
<path d="M221.191 374.193L219.191 374.457L214.305 368.252L214.136 368.274L211.023 375.532L209.023 375.795L213.118 366.631L212.335 360.688L214.082 360.458L214.864 366.401L221.191 374.193Z" fill="white"/>
</svg>
