<svg width="36" height="35" viewBox="0 0 36 35" fill="none" xmlns="http://www.w3.org/2000/svg">
<rect width="36" height="35" rx="8" fill="#FFA451" fill-opacity="0.15"/>
<path d="M16.0198 16.3001C15.3207 16.3001 14.6502 16.0472 14.1559 15.5971C13.6616 15.147 13.3839 14.5366 13.3839 13.9001C13.3839 13.2636 13.6616 12.6531 14.1559 12.203C14.6502 11.7529 15.3207 11.5001 16.0198 11.5001C16.7189 11.5001 17.3893 11.7529 17.8836 12.203C18.378 12.6531 18.6557 13.2636 18.6557 13.9001C18.6557 14.5366 18.378 15.147 17.8836 15.5971C17.3893 16.0472 16.7189 16.3001 16.0198 16.3001V16.3001ZM16.0198 16.9C17.4366 16.9 18.7875 17.14 20.0395 17.554L19.3147 21.1H18.4909L17.9967 23.5H14.0428L13.5486 21.1H12.7249L12 17.554C13.2881 17.1253 14.6483 16.904 16.0198 16.9V16.9ZM21.4959 17.002C22.3657 17.11 23.2026 17.29 24 17.554L23.2685 21.1H22.4448L21.9506 23.5H19.341L19.5848 22.3H20.4086L21.4959 17.002V17.002ZM19.9736 11.5001C20.3594 11.4971 20.7411 11.5712 21.092 11.7172C21.4428 11.8632 21.7542 12.0775 22.0041 12.3451C22.254 12.6126 22.4364 12.9268 22.5384 13.2655C22.6404 13.6043 22.6594 13.9592 22.5943 14.3054C22.5291 14.6516 22.3813 14.9805 22.1613 15.269C21.9412 15.5575 21.6543 15.7984 21.3208 15.9749C20.9873 16.1514 20.6153 16.2591 20.2311 16.2904C19.8469 16.3217 19.4598 16.2758 19.0972 16.1561C19.6666 15.5185 19.9774 14.7218 19.9774 13.9001C19.9774 13.0783 19.6666 12.2817 19.0972 11.6441C19.3806 11.5601 19.6639 11.5001 19.9736 11.5001Z" fill="#FFA451"/>
</svg>
