<svg width="35" height="35" viewBox="0 0 35 35" fill="none" xmlns="http://www.w3.org/2000/svg">
<rect width="35" height="35" rx="8" fill="#2CBB88" fill-opacity="0.15"/>
<path d="M15.738 12.9325C14.7218 12.4797 13.3015 12.2579 11.4 12.2501C11.2207 12.2478 11.0449 12.2966 10.896 12.39C10.7738 12.467 10.6738 12.5709 10.6048 12.6925C10.5357 12.8141 10.4997 12.9497 10.5 13.0873V20.5963C10.5 21.1039 10.887 21.4868 11.4 21.4868C13.3988 21.4868 15.4039 21.6611 16.6048 22.7204C16.6212 22.7349 16.6419 22.7446 16.6642 22.7483C16.6865 22.752 16.7095 22.7495 16.7303 22.7411C16.7511 22.7328 16.7688 22.7189 16.7812 22.7012C16.7936 22.6835 16.8001 22.6628 16.8 22.6416V13.7939C16.8 13.7342 16.7864 13.6752 16.7599 13.6208C16.7334 13.5665 16.6947 13.5181 16.6464 13.4789C16.3713 13.2594 16.0658 13.0756 15.738 12.9325V12.9325Z" fill="#2CBB88"/>
<path d="M24.1027 12.3893C23.9538 12.2961 23.778 12.2475 23.5987 12.2501V12.2501C21.6975 12.258 20.2775 12.4788 19.2615 12.9329C18.9338 13.0759 18.6282 13.2594 18.353 13.4785C18.3048 13.5178 18.2662 13.5663 18.2398 13.6206C18.2134 13.675 18.1997 13.734 18.1997 13.7937V22.6467C18.1997 22.6671 18.2061 22.6869 18.2181 22.7039C18.2302 22.7208 18.2473 22.734 18.2674 22.7419C18.2874 22.7498 18.3095 22.752 18.3309 22.7482C18.3523 22.7444 18.372 22.7347 18.3875 22.7205C19.1094 22.0509 20.3762 21.491 23.5999 21.4913C23.8385 21.4913 24.0674 21.4028 24.2361 21.2452C24.4049 21.0876 24.4997 20.8738 24.4997 20.651V13.0881C24.5 12.9501 24.464 12.8142 24.3947 12.6923C24.3255 12.5704 24.2252 12.4664 24.1027 12.3893Z" fill="#2CBB88"/>
</svg>
