<svg width="35" height="35" viewBox="0 0 35 35" fill="none" xmlns="http://www.w3.org/2000/svg">
<rect width="35" height="35" rx="8" fill="#FFEA30" fill-opacity="0.15"/>
<path d="M17.4998 10.625C17.9208 10.625 18.3267 10.6809 18.7173 10.7928C19.1079 10.9047 19.4736 11.0636 19.8143 11.2695C20.155 11.4754 20.4642 11.7216 20.742 12.0081C21.0198 12.2945 21.2585 12.6134 21.4582 12.9648C21.6578 13.3161 21.8119 13.6932 21.9204 14.0961C22.0289 14.4989 22.0832 14.9174 22.0832 15.3516C22.0832 16.0006 21.9638 16.6026 21.7251 17.1576C21.4864 17.7126 21.1457 18.2161 20.703 18.6682C20.3427 19.0352 20.066 19.4448 19.8729 19.8969C19.6797 20.3489 19.5832 20.839 19.5832 21.3672V23.0859C19.5832 23.265 19.5506 23.4328 19.4855 23.5895C19.4204 23.7461 19.3314 23.8826 19.2186 23.999C19.1057 24.1154 18.9734 24.2072 18.8215 24.2743C18.6695 24.3414 18.5068 24.375 18.3332 24.375H16.6665C16.4929 24.375 16.3301 24.3414 16.1782 24.2743C16.0263 24.2072 15.8939 24.1154 15.7811 23.999C15.6682 23.8826 15.5793 23.7461 15.5142 23.5895C15.4491 23.4328 15.4165 23.265 15.4165 23.0859V21.3672C15.4165 20.839 15.3199 20.3489 15.1268 19.8969C14.9336 19.4448 14.657 19.0352 14.2967 18.6682C13.854 18.2161 13.5133 17.7126 13.2746 17.1576C13.0359 16.6026 12.9165 16.0006 12.9165 15.3516C12.9165 14.9174 12.9708 14.4989 13.0793 14.0961C13.1878 13.6932 13.3419 13.3161 13.5415 12.9648C13.7412 12.6134 13.9799 12.2945 14.2576 12.0081C14.5354 11.7216 14.8447 11.4754 15.1854 11.2695C15.5261 11.0636 15.8918 10.9047 16.2824 10.7928C16.673 10.6809 17.0788 10.625 17.4998 10.625ZM18.3332 23.5156C18.446 23.5156 18.5437 23.4731 18.6261 23.3881C18.7086 23.303 18.7498 23.2023 18.7498 23.0859V21.7969H16.2498V23.0859C16.2498 23.2023 16.2911 23.303 16.3735 23.3881C16.456 23.4731 16.5537 23.5156 16.6665 23.5156H18.3332ZM18.7694 20.9375C18.8258 20.3601 18.969 19.8364 19.1991 19.3665C19.4291 18.8965 19.7394 18.4578 20.13 18.0505C20.4903 17.6746 20.767 17.2639 20.9601 16.8185C21.1533 16.3732 21.2498 15.8842 21.2498 15.3516C21.2498 14.8189 21.1511 14.3176 20.9536 13.8477C20.7561 13.3777 20.4881 12.9681 20.1496 12.619C19.811 12.2699 19.4139 11.9935 18.9582 11.7899C18.5024 11.5862 18.0163 11.4844 17.4998 11.4844C16.9833 11.4844 16.4972 11.5862 16.0415 11.7899C15.5858 11.9935 15.1886 12.2699 14.8501 12.619C14.5116 12.9681 14.2435 13.3777 14.0461 13.8477C13.8486 14.3176 13.7498 14.8189 13.7498 15.3516C13.7498 15.8842 13.8464 16.3732 14.0396 16.8185C14.2327 17.2639 14.5094 17.6746 14.8696 18.0505C15.2603 18.4578 15.5706 18.8965 15.8006 19.3665C16.0307 19.8364 16.1739 20.3601 16.2303 20.9375H18.7694Z" fill="#FFEA30"/>
</svg>
