<svg width="36" height="35" viewBox="0 0 36 35" fill="none" xmlns="http://www.w3.org/2000/svg">
<rect width="36" height="35" rx="8" fill="#6951FF" fill-opacity="0.15"/>
<path d="M13.9818 19.2668C14.2602 20.7502 14.6142 21.3992 15.795 22.0789C16.9763 22.7579 17.5373 23.5 18.0005 23.5C18.4631 23.5 18.9893 22.851 20.1701 22.1705C21.3515 21.4908 21.0359 21.2839 21.3143 19.8005L18.0005 21.921L13.9818 19.2668V19.2668ZM23.7071 15.3967L18.7121 11.7161C18.3209 11.428 17.6801 11.428 17.2889 11.7161L12.2934 15.3967C11.9022 15.6849 11.9022 16.157 12.2934 16.4451L17.2883 20.1257C17.6795 20.4139 18.3203 20.4139 18.7115 20.1257L21.9407 17.7462L18.4391 16.667C18.2955 16.7125 18.1483 16.7353 18.0005 16.7349C17.3693 16.7349 16.8581 16.3354 16.8581 15.842C16.8581 15.347 17.3699 14.9475 18.0005 14.9475C18.4901 14.9475 18.9065 15.1899 19.0685 15.527L22.7777 17.1288L23.7071 16.4444C24.0976 16.157 24.0976 15.6849 23.7071 15.3967V15.3967ZM22.1807 22.371C22.1417 22.675 22.9505 23.1747 23.0273 22.2866C23.3747 18.2823 22.7777 17.1304 22.7777 17.1304L21.9407 17.747C21.9407 17.7462 22.6505 18.6352 22.1807 22.371V22.371Z" fill="#6951FF"/>
</svg>
