<svg width="35" height="35" viewBox="0 0 35 35" fill="none" xmlns="http://www.w3.org/2000/svg">
<rect width="35" height="35" rx="8" fill="white" fill-opacity="0.15"/>
<g clip-path="url(#clip0_1368_3)">
<path d="M12.6503 24.5H14.8999L15.8138 21.9114L13.8859 21.2086L12.6503 24.5ZM19.186 21.9114L20.0999 24.5H22.3496L21.1139 21.2086L19.186 21.9114V21.9114ZM22.6999 11.9H18.4749L18.1499 10.5H16.8499L16.5249 11.9H12.2999C12.1275 11.9 11.9622 11.9737 11.8403 12.105C11.7184 12.2363 11.6499 12.4143 11.6499 12.6V20.3C11.6499 20.4857 11.7184 20.6637 11.8403 20.795C11.9622 20.9262 12.1275 21 12.2999 21H22.6999C22.8723 21 23.0376 20.9262 23.1595 20.795C23.2814 20.6637 23.3499 20.4857 23.3499 20.3V12.6C23.3499 12.4143 23.2814 12.2363 23.1595 12.105C23.0376 11.9737 22.8723 11.9 22.6999 11.9V11.9Z" fill="white"/>
</g>
<defs>
<clipPath id="clip0_1368_3">
<rect width="13" height="14" fill="white" transform="translate(11 10.5)"/>
</clipPath>
</defs>
</svg>
