<svg width="24" height="24" viewBox="0 0 24 24" fill="none" xmlns="http://www.w3.org/2000/svg">
<path d="M15.8161 13.5707C14.9545 13.5707 14.2561 14.5391 14.2561 15.7295C14.2561 16.9223 14.9545 17.8907 15.8161 17.8907C16.6777 17.8907 17.3761 16.9223 17.3761 15.7295C17.3749 14.5391 16.6777 13.5707 15.8161 13.5707ZM21.2473 7.95109C21.4261 7.51309 21.4333 5.02429 20.4853 2.63989C20.4853 2.63989 18.3121 2.87869 15.0241 5.13589C14.3341 4.94389 13.1665 4.85029 12.0013 4.85029C10.8337 4.85029 9.66728 4.94389 8.97728 5.13589C5.68808 2.87869 3.51488 2.63989 3.51488 2.63989C2.56808 5.02429 2.57768 7.51309 2.75408 7.95109C1.64048 9.16069 0.960083 10.6139 0.960083 12.5963C0.960083 21.2195 8.11568 21.3575 9.92048 21.3575L12.0013 21.3599L14.0797 21.3575C15.8869 21.3575 23.0401 21.2195 23.0401 12.5963C23.0401 10.6139 22.3609 9.16069 21.2473 7.95109ZM12.0337 20.2979H11.9665C7.44128 20.2979 3.91568 19.7591 3.91568 15.3599C3.91568 14.3051 4.28768 13.3283 5.17208 12.5171C6.64448 11.1647 9.13808 11.8799 11.9665 11.8799H12.0337C14.8621 11.8799 17.3569 11.1647 18.8305 12.5171C19.7125 13.3283 20.0845 14.3051 20.0845 15.3599C20.0845 19.7591 16.5601 20.2979 12.0337 20.2979ZM8.18528 13.5707C7.32368 13.5707 6.62528 14.5391 6.62528 15.7295C6.62528 16.9223 7.32368 17.8907 8.18528 17.8907C9.04808 17.8907 9.74648 16.9223 9.74648 15.7295C9.74648 14.5391 9.04808 13.5707 8.18528 13.5707Z" fill="white"/>
</svg>
