<svg width="24" height="24" viewBox="0 0 24 24" fill="none" xmlns="http://www.w3.org/2000/svg">
<path d="M12 2.24695C9.62543 2.2469 7.32833 3.09183 5.51977 4.63055C3.7112 6.16928 2.50921 8.30136 2.12888 10.6453C1.74855 12.9892 2.21471 15.392 3.44394 17.4236C4.67317 19.4552 6.58525 20.9832 8.838 21.7339C9.338 21.8219 9.525 21.5219 9.525 21.2589C9.525 21.0219 9.513 20.2339 9.513 19.3969C7 19.8589 6.35 18.7839 6.15 18.2219C5.92814 17.6747 5.57634 17.1897 5.125 16.8089C4.775 16.6219 4.275 16.1589 5.112 16.1469C5.43188 16.1816 5.7387 16.2928 6.00644 16.4712C6.27417 16.6497 6.49493 16.89 6.65 17.1719C6.78673 17.4176 6.9706 17.6339 7.19107 17.8084C7.41153 17.9829 7.66427 18.1122 7.93478 18.1888C8.2053 18.2654 8.48828 18.2879 8.76751 18.255C9.04674 18.2221 9.31673 18.1344 9.562 17.9969C9.60532 17.4883 9.83206 17.0128 10.2 16.6589C7.975 16.4089 5.65 15.5469 5.65 11.7219C5.63583 10.7279 6.00258 9.76616 6.675 9.03395C6.36931 8.17016 6.40508 7.22224 6.775 6.38395C6.775 6.38395 7.612 6.12195 9.525 7.40895C11.1613 6.9589 12.8887 6.9589 14.525 7.40895C16.437 6.10895 17.275 6.38395 17.275 6.38395C17.645 7.22222 17.6808 8.17018 17.375 9.03395C18.0495 9.7649 18.4165 10.7275 18.4 11.7219C18.4 15.5589 16.062 16.4089 13.837 16.6589C14.0757 16.9008 14.2595 17.1912 14.3759 17.5105C14.4924 17.8297 14.5388 18.1702 14.512 18.5089C14.512 19.8469 14.5 20.9219 14.5 21.2589C14.5 21.5219 14.687 21.8339 15.187 21.7339C17.4356 20.9769 19.342 19.4453 20.5658 17.4127C21.7897 15.3801 22.2513 12.9787 21.8684 10.6371C21.4854 8.29561 20.2828 6.16638 18.4752 4.62953C16.6676 3.09268 14.3726 2.24824 12 2.24695Z" fill="white"/>
</svg>
