<?xml version="1.0" encoding="UTF-8"?>
<svg width="12px" height="12px" viewBox="0 0 12 12" version="1.1" xmlns="http://www.w3.org/2000/svg" xmlns:xlink="http://www.w3.org/1999/xlink">
    <title>text</title>
    <g id="Page-1" stroke="none" stroke-width="1" fill="none" fill-rule="evenodd">
        <g id="Desktop" transform="translate(-149.000000, -513.000000)" fill="#FFFFFF" fill-rule="nonzero">
            <g id="Group-8" transform="translate(100.000000, 158.500000)">
                <g id="Group" transform="translate(0.000000, 327.500000)">
                    <g id="Group-2" transform="translate(49.000000, 21.000000)">
                        <g id="text" transform="translate(0.000000, 6.000000)">
                            <path d="M11.5,6.85714286 L0.5,6.85714286 C0.225,6.85714286 0,7.05 0,7.28571429 L0,8.14285714 C0,8.37955061 0.223857625,8.57142857 0.5,8.57142857 L11.5,8.57142857 C11.7761424,8.57142857 12,8.37955061 12,8.14285714 L12,7.28571429 C12,7.04902082 11.7761424,6.85714286 11.5,6.85714286 Z M11.5,3.42857143 L0.5,3.42857143 C0.225,3.42857143 0,3.62142857 0,3.85714286 L0,4.71428571 C0,4.95097918 0.223857625,5.14285714 0.5,5.14285714 L11.5,5.14285714 C11.7761424,5.14285714 12,4.95097918 12,4.71428571 L12,3.85714286 C12,3.62044939 11.7761424,3.42857143 11.5,3.42857143 Z M6.5,10.2857143 L0.5,10.2857143 C0.225,10.2857143 0,10.4785714 0,10.7142857 L0,11.5714286 C0,11.808122 0.223857625,12 0.5,12 L6.5,12 C6.77614237,12 7,11.808122 7,11.5714286 L7,10.7142857 C7,10.4775923 6.77614237,10.2857143 6.5,10.2857143 Z M11.5,0 L0.5,0 C0.225,0 0,0.192857143 0,0.428571429 L0,1.28571429 C0,1.52240775 0.223857625,1.71428571 0.5,1.71428571 L11.5,1.71428571 C11.7761424,1.71428571 12,1.52240775 12,1.28571429 L12,0.428571429 C12,0.191877964 11.7761424,0 11.5,0 Z" id="Shape"></path>
                        </g>
                    </g>
                </g>
            </g>
        </g>
    </g>
</svg>