<?xml version="1.0" encoding="UTF-8"?>
<svg width="15px" height="15px" viewBox="0 0 15 15" version="1.1" xmlns="http://www.w3.org/2000/svg" xmlns:xlink="http://www.w3.org/1999/xlink">
    <title>github-black</title>
    <g id="Page-1" stroke="none" stroke-width="1" fill="none" fill-rule="evenodd">
        <g id="Desktop" transform="translate(-301.000000, -511.000000)" fill="#000000" fill-rule="nonzero">
            <g id="Group-8" transform="translate(100.000000, 158.500000)">
                <g id="Group" transform="translate(163.000000, 327.500000)">
                    <g id="Group-2" transform="translate(38.000000, 21.000000)">
                        <g id="github-black" transform="translate(0.000000, 4.000000)">
                            <path d="M7.49953125,0 C3.358125,0 0,3.44268894 0,7.69041831 C0,11.0874482 2.14875,13.969733 5.12953125,14.9867272 C5.50453125,15.0573785 5.64140625,14.8199518 5.64140625,14.6161685 C5.64140625,14.4335324 5.63484375,13.9500275 5.63109375,13.3083983 C3.5446875,13.773159 3.10453125,12.2774662 3.10453125,12.2774662 C2.76375,11.3892782 2.27203125,11.1528128 2.27203125,11.1528128 C1.5909375,10.6755559 2.32359375,10.6851683 2.32359375,10.6851683 C3.0759375,10.7394785 3.47203125,11.4777125 3.47203125,11.4777125 C4.14140625,12.6528313 5.2275,12.3135128 5.655,12.1164581 C5.72296875,11.619496 5.91703125,11.2806581 6.13125,11.0884095 C4.46578125,10.8942386 2.715,10.2348265 2.715,7.28813841 C2.715,6.4484933 3.00703125,5.76216639 3.48703125,5.22435128 C3.4096875,5.02969979 3.15234375,4.24821 3.56015625,3.18940149 C3.56015625,3.18940149 4.19015625,2.98273468 5.62265625,3.97762022 C6.22125,3.80699968 6.8625,3.7219299 7.50046875,3.71856543 C8.1375,3.7219299 8.77921875,3.80699968 9.37828125,3.97762022 C10.8098437,2.98273468 11.4384375,3.18940149 11.4384375,3.18940149 C11.8476563,4.24821 11.5903125,5.02969979 11.5129687,5.22435128 C11.9939062,5.76216639 12.2840625,6.4484933 12.2840625,7.28813841 C12.2840625,10.2420358 10.5304687,10.8923161 8.85984375,11.0826421 C9.12890625,11.3200688 9.36890625,11.7891552 9.36890625,12.5067224 C9.36890625,13.534771 9.35953125,14.3638424 9.35953125,14.6161685 C9.35953125,14.8218744 9.49453125,15.0612236 9.87515625,14.985766 C12.853125,13.9668492 15,11.0864869 15,7.69041831 C15,3.44268894 11.641875,0 7.49953125,0" id="Path"></path>
                        </g>
                    </g>
                </g>
            </g>
        </g>
    </g>
</svg>