<svg xmlns="http://www.w3.org/2000/svg" width="48" height="48" viewBox="0 0 48 48"><defs><linearGradient id="kYYaRNa" x1="32.629%" x2="65.396%" y1="-8.021%" y2="101.596%"><stop offset="0%" stop-color="#4367DC"/><stop offset="4.289%" stop-color="#4C62D6"/><stop offset="11.42%" stop-color="#6654C7"/><stop offset="20.45%" stop-color="#8F3DAE"/><stop offset="23.41%" stop-color="#9E35A5"/><stop offset="45.12%" stop-color="#D42F7F"/><stop offset="82.42%" stop-color="#D73578"/></linearGradient><linearGradient id="kYYaRNb" x1="73.858%" x2="22.723%" y1="9.887%" y2="95.862%"><stop offset="33.04%" stop-color="#D42F7F"/><stop offset="100%" stop-color="#F7772E"/></linearGradient><linearGradient id="kYYaRNc" x1="62.351%" x2="30.133%" y1="20.607%" y2="97.45%"><stop offset="0%" stop-color="#9E35A5" stop-opacity="0"/><stop offset="45.12%" stop-color="#D42F7F" stop-opacity=".5"/><stop offset="75.24%" stop-color="#F7772E"/><stop offset="100%" stop-color="#FEF780"/></linearGradient></defs><g fill="none" fill-rule="nonzero"><path fill="url(#kYYaRNa)" d="M47.7901639,14.1377049 C47.6721311,11.5934426 47.2655738,9.84918033 46.6754098,8.32786885 C46.0590164,6.75409836 45.2459016,5.41639344 43.9213115,4.09180328 C42.5967213,2.76721311 41.2590164,1.94098361 39.6852459,1.33770492 C38.1639344,0.747540984 36.4196721,0.340983607 33.8754098,0.22295082 C31.3180328,0.104918033 30.504918,0.0786885246 24.0131148,0.0786885246 C17.5081967,0.0786885246 16.695082,0.104918033 14.1508197,0.22295082 C11.6065574,0.340983607 9.86229508,0.747540984 8.34098361,1.33770492 C6.76721311,1.95409836 5.4295082,2.76721311 4.10491803,4.09180328 C2.78032787,5.41639344 1.95409836,6.75409836 1.35081967,8.32786885 C0.760655738,9.84918033 0.354098361,11.5934426 0.236065574,14.1377049 C0.118032787,16.695082 0.0918032787,17.5081967 0.0918032787,24 C0.0918032787,30.504918 0.118032787,31.3180328 0.236065574,33.8622951 C0.354098361,36.4065574 0.760655738,38.1508197 1.35081967,39.6721311 C1.96721311,41.2459016 2.78032787,42.5836066 4.10491803,43.9081967 C5.4295082,45.2327869 6.76721311,46.0590164 8.34098361,46.6622951 C9.86229508,47.252459 11.6065574,47.6590164 14.1508197,47.7770492 C16.7081967,47.895082 17.5213115,47.9213115 24.0131148,47.9213115 C30.5180328,47.9213115 31.3311475,47.895082 33.8754098,47.7770492 C36.4196721,47.6590164 38.1639344,47.252459 39.6852459,46.6622951 C41.2590164,46.0459016 42.5967213,45.2327869 43.9213115,43.9081967 C45.2459016,42.5836066 46.0721311,41.2459016 46.6754098,39.6721311 C47.2655738,38.1508197 47.6721311,36.4065574 47.7901639,33.8622951 C47.9081967,31.304918 47.9344262,30.4918033 47.9344262,24 C47.9344262,17.5081967 47.9081967,16.6819672 47.7901639,14.1377049 Z M43.4885246,33.6655738 C43.3836066,36 42.9901639,37.2721311 42.6622951,38.1114754 C42.2295082,39.2262295 41.704918,40.0262295 40.8655738,40.8655738 C40.0262295,41.704918 39.2262295,42.2163934 38.1114754,42.6622951 C37.2721311,42.9901639 36,43.3836066 33.6655738,43.4885246 C31.147541,43.6065574 30.3868852,43.6327869 24,43.6327869 C17.6131148,43.6327869 16.852459,43.6065574 14.3344262,43.4885246 C12,43.3836066 10.7278689,42.9901639 9.88852459,42.6622951 C8.77377049,42.2295082 7.97377049,41.704918 7.13442623,40.8655738 C6.29508197,40.0262295 5.78360656,39.2262295 5.33770492,38.1114754 C5.00983607,37.2721311 4.61639344,36 4.51147541,33.6655738 C4.39344262,31.147541 4.36721311,30.3868852 4.36721311,24 C4.36721311,17.6131148 4.39344262,16.852459 4.51147541,14.3344262 C4.61639344,12 5.00983607,10.7278689 5.33770492,9.88852459 C5.7704918,8.77377049 6.29508197,7.97377049 7.13442623,7.13442623 C7.97377049,6.29508197 8.77377049,5.78360656 9.88852459,5.33770492 C10.7278689,5.00983607 12,4.61639344 14.3344262,4.51147541 C16.852459,4.39344262 17.6131148,4.36721311 24,4.36721311 C30.3868852,4.36721311 31.147541,4.39344262 33.6655738,4.51147541 C36,4.61639344 37.2721311,5.00983607 38.1114754,5.33770492 C39.2262295,5.7704918 40.0262295,6.29508197 40.8655738,7.13442623 C41.704918,7.97377049 42.2163934,8.77377049 42.6622951,9.88852459 C42.9901639,10.7278689 43.3836066,12 43.4885246,14.3344262 C43.6065574,16.852459 43.6327869,17.6131148 43.6327869,24 C43.6327869,30.3868852 43.5934426,31.147541 43.4885246,33.6655738 Z"/><path fill="url(#kYYaRNb)" d="M24,11.7114754 C17.2065574,11.7114754 11.7114754,17.2196721 11.7114754,24 C11.7114754,30.7934426 17.2196721,36.2885246 24,36.2885246 C30.7803279,36.2885246 36.2885246,30.7803279 36.2885246,24 C36.2885246,17.2065574 30.7934426,11.7114754 24,11.7114754 Z M24,31.9737705 C19.5934426,31.9737705 16.0262295,28.4065574 16.0262295,24 C16.0262295,19.5934426 19.5934426,16.0262295 24,16.0262295 C28.4065574,16.0262295 31.9737705,19.5934426 31.9737705,24 C31.9737705,28.4065574 28.4065574,31.9737705 24,31.9737705 Z"/><circle cx="36.774" cy="11.226" r="2.872" fill="#BC30A0"/><path fill="url(#kYYaRNc)" d="M0.0655737705,24 C0.0655737705,30.504918 0.0918032787,31.3180328 0.209836066,33.8622951 C0.327868852,36.4065574 0.73442623,38.1508197 1.32459016,39.6721311 C1.94098361,41.2459016 2.75409836,42.5836066 4.07868852,43.9081967 C5.40327869,45.2327869 6.74098361,46.0590164 8.3147541,46.6622951 C9.83606557,47.252459 11.5803279,47.6590164 14.1245902,47.7770492 C16.6819672,47.895082 17.495082,47.9213115 23.9868852,47.9213115 C30.4918033,47.9213115 31.304918,47.895082 33.8491803,47.7770492 C36.3934426,47.6590164 38.1377049,47.252459 39.6590164,46.6622951 C41.2327869,46.0459016 42.5704918,45.2327869 43.895082,43.9081967 C45.2196721,42.5836066 46.0459016,41.2459016 46.6491803,39.6721311 C47.2393443,38.1508197 47.6459016,36.4065574 47.7639344,33.8622951 C47.8819672,31.304918 47.9081967,30.4918033 47.9081967,24 C47.9081967,17.495082 47.8819672,16.6819672 47.7639344,14.1377049 C47.6459016,11.5934426 47.2393443,9.84918033 46.6491803,8.32786885 C46.0327869,6.75409836 45.2196721,5.41639344 43.895082,4.09180328 C42.5704918,2.76721311 41.2327869,1.94098361 39.6590164,1.33770492 C38.1377049,0.747540984 36.3934426,0.340983607 33.8491803,0.22295082 C31.2918033,0.104918033 30.4786885,0.0786885246 23.9868852,0.0786885246 C17.4819672,0.0786885246 16.6688525,0.104918033 14.1245902,0.22295082 C11.5803279,0.340983607 9.83606557,0.747540984 8.3147541,1.33770492 C6.74098361,1.95409836 5.40327869,2.76721311 4.07868852,4.09180328 C2.75409836,5.41639344 1.92786885,6.75409836 1.32459016,8.32786885 C0.73442623,9.84918033 0.327868852,11.5934426 0.209836066,14.1377049 C0.0918032787,16.6819672 0.0655737705,17.495082 0.0655737705,24 Z M4.38032787,24 C4.38032787,17.6131148 4.40655738,16.852459 4.52459016,14.3344262 C4.6295082,12 5.02295082,10.7278689 5.35081967,9.88852459 C5.78360656,8.77377049 6.30819672,7.97377049 7.14754098,7.13442623 C7.98688525,6.29508197 8.78688525,5.78360656 9.90163934,5.33770492 C10.7409836,5.00983607 12.0131148,4.61639344 14.347541,4.51147541 C16.8655738,4.39344262 17.6262295,4.36721311 24.0131148,4.36721311 C30.4,4.36721311 31.1606557,4.39344262 33.6786885,4.51147541 C36.0131148,4.61639344 37.2852459,5.00983607 38.1245902,5.33770492 C39.2393443,5.7704918 40.0393443,6.29508197 40.8786885,7.13442623 C41.7180328,7.97377049 42.2295082,8.77377049 42.6754098,9.88852459 C43.0032787,10.7278689 43.3967213,12 43.5016393,14.3344262 C43.6196721,16.852459 43.6459016,17.6131148 43.6459016,24 C43.6459016,30.3868852 43.6196721,31.147541 43.5016393,33.6655738 C43.3967213,36 43.0032787,37.2721311 42.6754098,38.1114754 C42.242623,39.2262295 41.7180328,40.0262295 40.8786885,40.8655738 C40.0393443,41.704918 39.2393443,42.2163934 38.1245902,42.6622951 C37.2852459,42.9901639 36.0131148,43.3836066 33.6786885,43.4885246 C31.1606557,43.6065574 30.4,43.6327869 24.0131148,43.6327869 C17.6262295,43.6327869 16.8655738,43.6065574 14.347541,43.4885246 C12.0131148,43.3836066 10.7409836,42.9901639 9.90163934,42.6622951 C8.78688525,42.2295082 7.98688525,41.704918 7.14754098,40.8655738 C6.30819672,40.0262295 5.79672131,39.2262295 5.35081967,38.1114754 C5.02295082,37.2721311 4.6295082,36 4.52459016,33.6655738 C4.40655738,31.147541 4.38032787,30.3868852 4.38032787,24 Z"/></g></svg>