<svg width="25" height="25" viewBox="0 0 20 20" fill="none" xmlns="http://www.w3.org/2000/svg">
              <path d="M9.9999 0.399994C4.6979 0.399994 0.399902 4.69799 0.399902 9.99999C0.399902 15.302 4.6979 19.6 9.9999 19.6C15.3019 19.6 19.5999 15.302 19.5999 9.99999C19.5999 4.69799 15.3019 0.399994 9.9999 0.399994ZM7.6499 13.979H5.7059V7.72299H7.6499V13.979ZM6.6659 6.95499C6.0519 6.95499 5.6549 6.51999 5.6549 5.98199C5.6549 5.43299 6.0639 5.01099 6.6909 5.01099C7.3179 5.01099 7.7019 5.43299 7.7139 5.98199C7.7139 6.51999 7.3179 6.95499 6.6659 6.95499ZM14.7499 13.979H12.8059V10.512C12.8059 9.70499 12.5239 9.15699 11.8209 9.15699C11.2839 9.15699 10.9649 9.52799 10.8239 9.88499C10.7719 10.012 10.7589 10.192 10.7589 10.371V13.978H8.8139V9.71799C8.8139 8.93699 8.7889 8.28399 8.7629 7.72199H10.4519L10.5409 8.59099H10.5799C10.8359 8.18299 11.4629 7.58099 12.5119 7.58099C13.7909 7.58099 14.7499 8.43799 14.7499 10.28V13.979V13.979Z" fill="rgb(88, 154, 252)" />
            </svg>